%TF.GenerationSoftware,KiCad,Pcbnew,7.0.1-3b83917a11~172~ubuntu22.04.1*%
%TF.CreationDate,2023-06-11T16:35:38+01:00*%
%TF.ProjectId,lfo_expression_pedal,6c666f5f-6578-4707-9265-7373696f6e5f,rev?*%
%TF.SameCoordinates,Original*%
%TF.FileFunction,Soldermask,Top*%
%TF.FilePolarity,Negative*%
%FSLAX46Y46*%
G04 Gerber Fmt 4.6, Leading zero omitted, Abs format (unit mm)*
G04 Created by KiCad (PCBNEW 7.0.1-3b83917a11~172~ubuntu22.04.1) date 2023-06-11 16:35:38*
%MOMM*%
%LPD*%
G01*
G04 APERTURE LIST*
G04 Aperture macros list*
%AMRoundRect*
0 Rectangle with rounded corners*
0 $1 Rounding radius*
0 $2 $3 $4 $5 $6 $7 $8 $9 X,Y pos of 4 corners*
0 Add a 4 corners polygon primitive as box body*
4,1,4,$2,$3,$4,$5,$6,$7,$8,$9,$2,$3,0*
0 Add four circle primitives for the rounded corners*
1,1,$1+$1,$2,$3*
1,1,$1+$1,$4,$5*
1,1,$1+$1,$6,$7*
1,1,$1+$1,$8,$9*
0 Add four rect primitives between the rounded corners*
20,1,$1+$1,$2,$3,$4,$5,0*
20,1,$1+$1,$4,$5,$6,$7,0*
20,1,$1+$1,$6,$7,$8,$9,0*
20,1,$1+$1,$8,$9,$2,$3,0*%
G04 Aperture macros list end*
%ADD10C,2.000000*%
%ADD11R,1.700000X1.700000*%
%ADD12O,1.700000X1.700000*%
%ADD13R,2.000000X2.000000*%
%ADD14R,3.000000X2.500000*%
%ADD15R,2.000000X1.500000*%
%ADD16R,2.000000X3.800000*%
%ADD17RoundRect,0.250000X0.350000X0.450000X-0.350000X0.450000X-0.350000X-0.450000X0.350000X-0.450000X0*%
%ADD18RoundRect,0.250000X-0.475000X0.337500X-0.475000X-0.337500X0.475000X-0.337500X0.475000X0.337500X0*%
%ADD19RoundRect,0.250000X-0.350000X-0.450000X0.350000X-0.450000X0.350000X0.450000X-0.350000X0.450000X0*%
%ADD20RoundRect,0.150000X-0.512500X-0.150000X0.512500X-0.150000X0.512500X0.150000X-0.512500X0.150000X0*%
%ADD21RoundRect,0.250000X0.337500X0.475000X-0.337500X0.475000X-0.337500X-0.475000X0.337500X-0.475000X0*%
%ADD22R,1.000000X1.000000*%
%ADD23RoundRect,0.250000X0.450000X-0.350000X0.450000X0.350000X-0.450000X0.350000X-0.450000X-0.350000X0*%
%ADD24RoundRect,0.062500X0.062500X-0.375000X0.062500X0.375000X-0.062500X0.375000X-0.062500X-0.375000X0*%
%ADD25RoundRect,0.062500X0.375000X-0.062500X0.375000X0.062500X-0.375000X0.062500X-0.375000X-0.062500X0*%
%ADD26R,5.600000X5.600000*%
%ADD27RoundRect,0.250000X-0.450000X0.350000X-0.450000X-0.350000X0.450000X-0.350000X0.450000X0.350000X0*%
G04 APERTURE END LIST*
D10*
%TO.C,SW2*%
X163980000Y-78160000D03*
X157480000Y-78160000D03*
X163980000Y-73660000D03*
X157480000Y-73660000D03*
%TD*%
D11*
%TO.C,J2*%
X119380000Y-99060000D03*
D12*
X121920000Y-99060000D03*
X124460000Y-99060000D03*
%TD*%
D13*
%TO.C,SW6*%
X133466000Y-100116000D03*
D10*
X133466000Y-105116000D03*
X133466000Y-102616000D03*
D14*
X140966000Y-97016000D03*
X140966000Y-108216000D03*
D10*
X147966000Y-100116000D03*
X147966000Y-105116000D03*
%TD*%
%TO.C,SW1*%
X163980000Y-88900000D03*
X157480000Y-88900000D03*
X163980000Y-84400000D03*
X157480000Y-84400000D03*
%TD*%
D15*
%TO.C,U2*%
X142036000Y-113524000D03*
X142036000Y-115824000D03*
D16*
X148336000Y-115824000D03*
D15*
X142036000Y-118124000D03*
%TD*%
D17*
%TO.C,R10*%
X133080000Y-78105000D03*
X131080000Y-78105000D03*
%TD*%
D18*
%TO.C,C2*%
X145415000Y-86807500D03*
X145415000Y-88882500D03*
%TD*%
D10*
%TO.C,SW4*%
X124460000Y-88900000D03*
X117960000Y-88900000D03*
X124460000Y-84400000D03*
X117960000Y-84400000D03*
%TD*%
%TO.C,SW3*%
X117960000Y-74240000D03*
X124460000Y-74240000D03*
X117960000Y-78740000D03*
X124460000Y-78740000D03*
%TD*%
D11*
%TO.C,J5*%
X144780000Y-66620000D03*
D12*
X142240000Y-66620000D03*
X139700000Y-66620000D03*
X137160000Y-66620000D03*
%TD*%
D19*
%TO.C,R3*%
X159290000Y-112395000D03*
X161290000Y-112395000D03*
%TD*%
D20*
%TO.C,U3*%
X159015000Y-105410000D03*
X159015000Y-106360000D03*
X159015000Y-107310000D03*
X161290000Y-107310000D03*
X161290000Y-105410000D03*
%TD*%
D21*
%TO.C,C7*%
X161290000Y-102870000D03*
X159215000Y-102870000D03*
%TD*%
D11*
%TO.C,J4*%
X133523500Y-115824000D03*
D12*
X136063500Y-115824000D03*
%TD*%
D22*
%TO.C,TP3*%
X139700000Y-69837900D03*
%TD*%
D23*
%TO.C,R2*%
X129656000Y-107196000D03*
X129656000Y-105196000D03*
%TD*%
D11*
%TO.C,J6*%
X158750000Y-99060000D03*
D12*
X161290000Y-99060000D03*
X163830000Y-99060000D03*
%TD*%
D22*
%TO.C,TP4*%
X137160000Y-69837900D03*
%TD*%
D18*
%TO.C,C1*%
X142875000Y-86825000D03*
X142875000Y-88900000D03*
%TD*%
D21*
%TO.C,C5*%
X136063500Y-119634000D03*
X133988500Y-119634000D03*
%TD*%
D22*
%TO.C,TP2*%
X142240000Y-69837900D03*
%TD*%
D18*
%TO.C,C3*%
X139700000Y-86825000D03*
X139700000Y-88900000D03*
%TD*%
D24*
%TO.C,U1*%
X138347000Y-81614500D03*
X138847000Y-81614500D03*
X139347000Y-81614500D03*
X139847000Y-81614500D03*
X140347000Y-81614500D03*
X140847000Y-81614500D03*
X141347000Y-81614500D03*
X141847000Y-81614500D03*
X142347000Y-81614500D03*
X142847000Y-81614500D03*
X143347000Y-81614500D03*
X143847000Y-81614500D03*
D25*
X144534500Y-80927000D03*
X144534500Y-80427000D03*
X144534500Y-79927000D03*
X144534500Y-79427000D03*
X144534500Y-78927000D03*
X144534500Y-78427000D03*
X144534500Y-77927000D03*
X144534500Y-77427000D03*
X144534500Y-76927000D03*
X144534500Y-76427000D03*
X144534500Y-75927000D03*
X144534500Y-75427000D03*
D24*
X143847000Y-74739500D03*
X143347000Y-74739500D03*
X142847000Y-74739500D03*
X142347000Y-74739500D03*
X141847000Y-74739500D03*
X141347000Y-74739500D03*
X140847000Y-74739500D03*
X140347000Y-74739500D03*
X139847000Y-74739500D03*
X139347000Y-74739500D03*
X138847000Y-74739500D03*
X138347000Y-74739500D03*
D25*
X137659500Y-75427000D03*
X137659500Y-75927000D03*
X137659500Y-76427000D03*
X137659500Y-76927000D03*
X137659500Y-77427000D03*
X137659500Y-77927000D03*
X137659500Y-78427000D03*
X137659500Y-78927000D03*
X137659500Y-79427000D03*
X137659500Y-79927000D03*
X137659500Y-80427000D03*
X137659500Y-80927000D03*
D26*
X141097000Y-78177000D03*
%TD*%
D19*
%TO.C,R5*%
X119920000Y-112395000D03*
X121920000Y-112395000D03*
%TD*%
D20*
%TO.C,U4*%
X119645000Y-105410000D03*
X119645000Y-106360000D03*
X119645000Y-107310000D03*
X121920000Y-107310000D03*
X121920000Y-105410000D03*
%TD*%
D21*
%TO.C,C8*%
X121920000Y-102870000D03*
X119845000Y-102870000D03*
%TD*%
%TO.C,C6*%
X136063500Y-112014000D03*
X133988500Y-112014000D03*
%TD*%
D27*
%TO.C,R1*%
X129656000Y-98116000D03*
X129656000Y-100116000D03*
%TD*%
D19*
%TO.C,R6*%
X119920000Y-109855000D03*
X121920000Y-109855000D03*
%TD*%
%TO.C,R4*%
X159290000Y-109855000D03*
X161290000Y-109855000D03*
%TD*%
D18*
%TO.C,C4*%
X137160000Y-86842500D03*
X137160000Y-88917500D03*
%TD*%
D11*
%TO.C,SW5*%
X160020000Y-67310000D03*
D12*
X157480000Y-67310000D03*
%TD*%
D22*
%TO.C,TP1*%
X144780000Y-69837900D03*
%TD*%
G36*
X151703000Y-111141613D02*
G01*
X151748387Y-111187000D01*
X151765000Y-111249000D01*
X151765000Y-120526000D01*
X151748387Y-120588000D01*
X151703000Y-120633387D01*
X151641000Y-120650000D01*
X143634000Y-120650000D01*
X143572000Y-120633387D01*
X143526613Y-120588000D01*
X143510000Y-120526000D01*
X143510000Y-111249000D01*
X143526613Y-111187000D01*
X143572000Y-111141613D01*
X143634000Y-111125000D01*
X151641000Y-111125000D01*
X151703000Y-111141613D01*
G37*
M02*
