%TF.GenerationSoftware,KiCad,Pcbnew,7.0.1-3b83917a11~172~ubuntu22.04.1*%
%TF.CreationDate,2023-06-11T16:35:38+01:00*%
%TF.ProjectId,lfo_expression_pedal,6c666f5f-6578-4707-9265-7373696f6e5f,rev?*%
%TF.SameCoordinates,Original*%
%TF.FileFunction,Soldermask,Bot*%
%TF.FilePolarity,Negative*%
%FSLAX46Y46*%
G04 Gerber Fmt 4.6, Leading zero omitted, Abs format (unit mm)*
G04 Created by KiCad (PCBNEW 7.0.1-3b83917a11~172~ubuntu22.04.1) date 2023-06-11 16:35:38*
%MOMM*%
%LPD*%
G01*
G04 APERTURE LIST*
%ADD10C,2.000000*%
%ADD11R,1.700000X1.700000*%
%ADD12O,1.700000X1.700000*%
%ADD13R,2.000000X2.000000*%
%ADD14R,3.000000X2.500000*%
%ADD15R,0.740000X2.400000*%
G04 APERTURE END LIST*
D10*
%TO.C,SW2*%
X163980000Y-78160000D03*
X157480000Y-78160000D03*
X163980000Y-73660000D03*
X157480000Y-73660000D03*
%TD*%
D11*
%TO.C,J2*%
X119380000Y-99060000D03*
D12*
X121920000Y-99060000D03*
X124460000Y-99060000D03*
%TD*%
D13*
%TO.C,SW6*%
X133466000Y-100116000D03*
D10*
X133466000Y-105116000D03*
X133466000Y-102616000D03*
D14*
X140966000Y-97016000D03*
X140966000Y-108216000D03*
D10*
X147966000Y-100116000D03*
X147966000Y-105116000D03*
%TD*%
%TO.C,SW1*%
X163980000Y-88900000D03*
X157480000Y-88900000D03*
X163980000Y-84400000D03*
X157480000Y-84400000D03*
%TD*%
%TO.C,SW4*%
X124460000Y-88900000D03*
X117960000Y-88900000D03*
X124460000Y-84400000D03*
X117960000Y-84400000D03*
%TD*%
%TO.C,SW3*%
X117960000Y-74240000D03*
X124460000Y-74240000D03*
X117960000Y-78740000D03*
X124460000Y-78740000D03*
%TD*%
D11*
%TO.C,J5*%
X144780000Y-66620000D03*
D12*
X142240000Y-66620000D03*
X139700000Y-66620000D03*
X137160000Y-66620000D03*
%TD*%
D11*
%TO.C,J4*%
X133523500Y-115824000D03*
D12*
X136063500Y-115824000D03*
%TD*%
D11*
%TO.C,J6*%
X158750000Y-99060000D03*
D12*
X161290000Y-99060000D03*
X163830000Y-99060000D03*
%TD*%
D11*
%TO.C,SW5*%
X160020000Y-67310000D03*
D12*
X157480000Y-67310000D03*
%TD*%
D15*
%TO.C,J1*%
X138430000Y-76200000D03*
X138430000Y-80100000D03*
X139700000Y-76200000D03*
X139700000Y-80100000D03*
X140970000Y-76200000D03*
X140970000Y-80100000D03*
X142240000Y-76200000D03*
X142240000Y-80100000D03*
X143510000Y-76200000D03*
X143510000Y-80100000D03*
%TD*%
G36*
X151703000Y-111141613D02*
G01*
X151748387Y-111187000D01*
X151765000Y-111249000D01*
X151765000Y-120526000D01*
X151748387Y-120588000D01*
X151703000Y-120633387D01*
X151641000Y-120650000D01*
X143634000Y-120650000D01*
X143572000Y-120633387D01*
X143526613Y-120588000D01*
X143510000Y-120526000D01*
X143510000Y-111249000D01*
X143526613Y-111187000D01*
X143572000Y-111141613D01*
X143634000Y-111125000D01*
X151641000Y-111125000D01*
X151703000Y-111141613D01*
G37*
M02*
