%TF.GenerationSoftware,KiCad,Pcbnew,7.0.1-3b83917a11~172~ubuntu22.04.1*%
%TF.CreationDate,2023-06-11T16:35:38+01:00*%
%TF.ProjectId,lfo_expression_pedal,6c666f5f-6578-4707-9265-7373696f6e5f,rev?*%
%TF.SameCoordinates,Original*%
%TF.FileFunction,Legend,Top*%
%TF.FilePolarity,Positive*%
%FSLAX46Y46*%
G04 Gerber Fmt 4.6, Leading zero omitted, Abs format (unit mm)*
G04 Created by KiCad (PCBNEW 7.0.1-3b83917a11~172~ubuntu22.04.1) date 2023-06-11 16:35:38*
%MOMM*%
%LPD*%
G01*
G04 APERTURE LIST*
%ADD10C,0.300000*%
%ADD11C,0.150000*%
%ADD12C,0.120000*%
G04 APERTURE END LIST*
D10*
X127365000Y-123907666D02*
X126698333Y-123907666D01*
X126698333Y-123907666D02*
X126698333Y-122507666D01*
X128298333Y-123174333D02*
X127831666Y-123174333D01*
X127831666Y-123907666D02*
X127831666Y-122507666D01*
X127831666Y-122507666D02*
X128498333Y-122507666D01*
X129298333Y-122507666D02*
X129564999Y-122507666D01*
X129564999Y-122507666D02*
X129698333Y-122574333D01*
X129698333Y-122574333D02*
X129831666Y-122707666D01*
X129831666Y-122707666D02*
X129898333Y-122974333D01*
X129898333Y-122974333D02*
X129898333Y-123441000D01*
X129898333Y-123441000D02*
X129831666Y-123707666D01*
X129831666Y-123707666D02*
X129698333Y-123841000D01*
X129698333Y-123841000D02*
X129564999Y-123907666D01*
X129564999Y-123907666D02*
X129298333Y-123907666D01*
X129298333Y-123907666D02*
X129164999Y-123841000D01*
X129164999Y-123841000D02*
X129031666Y-123707666D01*
X129031666Y-123707666D02*
X128964999Y-123441000D01*
X128964999Y-123441000D02*
X128964999Y-122974333D01*
X128964999Y-122974333D02*
X129031666Y-122707666D01*
X129031666Y-122707666D02*
X129164999Y-122574333D01*
X129164999Y-122574333D02*
X129298333Y-122507666D01*
X131565000Y-123907666D02*
X131565000Y-122507666D01*
X131565000Y-122507666D02*
X132098333Y-122507666D01*
X132098333Y-122507666D02*
X132231667Y-122574333D01*
X132231667Y-122574333D02*
X132298333Y-122641000D01*
X132298333Y-122641000D02*
X132365000Y-122774333D01*
X132365000Y-122774333D02*
X132365000Y-122974333D01*
X132365000Y-122974333D02*
X132298333Y-123107666D01*
X132298333Y-123107666D02*
X132231667Y-123174333D01*
X132231667Y-123174333D02*
X132098333Y-123241000D01*
X132098333Y-123241000D02*
X131565000Y-123241000D01*
X133498333Y-123841000D02*
X133365000Y-123907666D01*
X133365000Y-123907666D02*
X133098333Y-123907666D01*
X133098333Y-123907666D02*
X132965000Y-123841000D01*
X132965000Y-123841000D02*
X132898333Y-123707666D01*
X132898333Y-123707666D02*
X132898333Y-123174333D01*
X132898333Y-123174333D02*
X132965000Y-123041000D01*
X132965000Y-123041000D02*
X133098333Y-122974333D01*
X133098333Y-122974333D02*
X133365000Y-122974333D01*
X133365000Y-122974333D02*
X133498333Y-123041000D01*
X133498333Y-123041000D02*
X133565000Y-123174333D01*
X133565000Y-123174333D02*
X133565000Y-123307666D01*
X133565000Y-123307666D02*
X132898333Y-123441000D01*
X134765000Y-123907666D02*
X134765000Y-122507666D01*
X134765000Y-123841000D02*
X134631667Y-123907666D01*
X134631667Y-123907666D02*
X134365000Y-123907666D01*
X134365000Y-123907666D02*
X134231667Y-123841000D01*
X134231667Y-123841000D02*
X134165000Y-123774333D01*
X134165000Y-123774333D02*
X134098333Y-123641000D01*
X134098333Y-123641000D02*
X134098333Y-123241000D01*
X134098333Y-123241000D02*
X134165000Y-123107666D01*
X134165000Y-123107666D02*
X134231667Y-123041000D01*
X134231667Y-123041000D02*
X134365000Y-122974333D01*
X134365000Y-122974333D02*
X134631667Y-122974333D01*
X134631667Y-122974333D02*
X134765000Y-123041000D01*
X136031667Y-123907666D02*
X136031667Y-123174333D01*
X136031667Y-123174333D02*
X135965000Y-123041000D01*
X135965000Y-123041000D02*
X135831667Y-122974333D01*
X135831667Y-122974333D02*
X135565000Y-122974333D01*
X135565000Y-122974333D02*
X135431667Y-123041000D01*
X136031667Y-123841000D02*
X135898334Y-123907666D01*
X135898334Y-123907666D02*
X135565000Y-123907666D01*
X135565000Y-123907666D02*
X135431667Y-123841000D01*
X135431667Y-123841000D02*
X135365000Y-123707666D01*
X135365000Y-123707666D02*
X135365000Y-123574333D01*
X135365000Y-123574333D02*
X135431667Y-123441000D01*
X135431667Y-123441000D02*
X135565000Y-123374333D01*
X135565000Y-123374333D02*
X135898334Y-123374333D01*
X135898334Y-123374333D02*
X136031667Y-123307666D01*
X136898334Y-123907666D02*
X136765001Y-123841000D01*
X136765001Y-123841000D02*
X136698334Y-123707666D01*
X136698334Y-123707666D02*
X136698334Y-122507666D01*
X139298334Y-123907666D02*
X138831667Y-123241000D01*
X138498334Y-123907666D02*
X138498334Y-122507666D01*
X138498334Y-122507666D02*
X139031667Y-122507666D01*
X139031667Y-122507666D02*
X139165001Y-122574333D01*
X139165001Y-122574333D02*
X139231667Y-122641000D01*
X139231667Y-122641000D02*
X139298334Y-122774333D01*
X139298334Y-122774333D02*
X139298334Y-122974333D01*
X139298334Y-122974333D02*
X139231667Y-123107666D01*
X139231667Y-123107666D02*
X139165001Y-123174333D01*
X139165001Y-123174333D02*
X139031667Y-123241000D01*
X139031667Y-123241000D02*
X138498334Y-123241000D01*
X140431667Y-123841000D02*
X140298334Y-123907666D01*
X140298334Y-123907666D02*
X140031667Y-123907666D01*
X140031667Y-123907666D02*
X139898334Y-123841000D01*
X139898334Y-123841000D02*
X139831667Y-123707666D01*
X139831667Y-123707666D02*
X139831667Y-123174333D01*
X139831667Y-123174333D02*
X139898334Y-123041000D01*
X139898334Y-123041000D02*
X140031667Y-122974333D01*
X140031667Y-122974333D02*
X140298334Y-122974333D01*
X140298334Y-122974333D02*
X140431667Y-123041000D01*
X140431667Y-123041000D02*
X140498334Y-123174333D01*
X140498334Y-123174333D02*
X140498334Y-123307666D01*
X140498334Y-123307666D02*
X139831667Y-123441000D01*
X140965001Y-122974333D02*
X141298334Y-123907666D01*
X141298334Y-123907666D02*
X141631667Y-122974333D01*
X142098334Y-123507666D02*
X142765001Y-123507666D01*
X141965001Y-123907666D02*
X142431668Y-122507666D01*
X142431668Y-122507666D02*
X142898334Y-123907666D01*
X144365001Y-122641000D02*
X144431668Y-122574333D01*
X144431668Y-122574333D02*
X144565001Y-122507666D01*
X144565001Y-122507666D02*
X144898335Y-122507666D01*
X144898335Y-122507666D02*
X145031668Y-122574333D01*
X145031668Y-122574333D02*
X145098335Y-122641000D01*
X145098335Y-122641000D02*
X145165001Y-122774333D01*
X145165001Y-122774333D02*
X145165001Y-122907666D01*
X145165001Y-122907666D02*
X145098335Y-123107666D01*
X145098335Y-123107666D02*
X144298335Y-123907666D01*
X144298335Y-123907666D02*
X145165001Y-123907666D01*
X145631668Y-122507666D02*
X146498334Y-122507666D01*
X146498334Y-122507666D02*
X146031668Y-123041000D01*
X146031668Y-123041000D02*
X146231668Y-123041000D01*
X146231668Y-123041000D02*
X146365001Y-123107666D01*
X146365001Y-123107666D02*
X146431668Y-123174333D01*
X146431668Y-123174333D02*
X146498334Y-123307666D01*
X146498334Y-123307666D02*
X146498334Y-123641000D01*
X146498334Y-123641000D02*
X146431668Y-123774333D01*
X146431668Y-123774333D02*
X146365001Y-123841000D01*
X146365001Y-123841000D02*
X146231668Y-123907666D01*
X146231668Y-123907666D02*
X145831668Y-123907666D01*
X145831668Y-123907666D02*
X145698334Y-123841000D01*
X145698334Y-123841000D02*
X145631668Y-123774333D01*
X148098334Y-122441000D02*
X146898334Y-124241000D01*
X148498334Y-122641000D02*
X148565001Y-122574333D01*
X148565001Y-122574333D02*
X148698334Y-122507666D01*
X148698334Y-122507666D02*
X149031668Y-122507666D01*
X149031668Y-122507666D02*
X149165001Y-122574333D01*
X149165001Y-122574333D02*
X149231668Y-122641000D01*
X149231668Y-122641000D02*
X149298334Y-122774333D01*
X149298334Y-122774333D02*
X149298334Y-122907666D01*
X149298334Y-122907666D02*
X149231668Y-123107666D01*
X149231668Y-123107666D02*
X148431668Y-123907666D01*
X148431668Y-123907666D02*
X149298334Y-123907666D01*
X149765001Y-122507666D02*
X150631667Y-122507666D01*
X150631667Y-122507666D02*
X150165001Y-123041000D01*
X150165001Y-123041000D02*
X150365001Y-123041000D01*
X150365001Y-123041000D02*
X150498334Y-123107666D01*
X150498334Y-123107666D02*
X150565001Y-123174333D01*
X150565001Y-123174333D02*
X150631667Y-123307666D01*
X150631667Y-123307666D02*
X150631667Y-123641000D01*
X150631667Y-123641000D02*
X150565001Y-123774333D01*
X150565001Y-123774333D02*
X150498334Y-123841000D01*
X150498334Y-123841000D02*
X150365001Y-123907666D01*
X150365001Y-123907666D02*
X149965001Y-123907666D01*
X149965001Y-123907666D02*
X149831667Y-123841000D01*
X149831667Y-123841000D02*
X149765001Y-123774333D01*
D11*
%TO.C,SW2*%
X166785000Y-74993332D02*
X166832619Y-74850475D01*
X166832619Y-74850475D02*
X166832619Y-74612380D01*
X166832619Y-74612380D02*
X166785000Y-74517142D01*
X166785000Y-74517142D02*
X166737380Y-74469523D01*
X166737380Y-74469523D02*
X166642142Y-74421904D01*
X166642142Y-74421904D02*
X166546904Y-74421904D01*
X166546904Y-74421904D02*
X166451666Y-74469523D01*
X166451666Y-74469523D02*
X166404047Y-74517142D01*
X166404047Y-74517142D02*
X166356428Y-74612380D01*
X166356428Y-74612380D02*
X166308809Y-74802856D01*
X166308809Y-74802856D02*
X166261190Y-74898094D01*
X166261190Y-74898094D02*
X166213571Y-74945713D01*
X166213571Y-74945713D02*
X166118333Y-74993332D01*
X166118333Y-74993332D02*
X166023095Y-74993332D01*
X166023095Y-74993332D02*
X165927857Y-74945713D01*
X165927857Y-74945713D02*
X165880238Y-74898094D01*
X165880238Y-74898094D02*
X165832619Y-74802856D01*
X165832619Y-74802856D02*
X165832619Y-74564761D01*
X165832619Y-74564761D02*
X165880238Y-74421904D01*
X165832619Y-74088570D02*
X166832619Y-73850475D01*
X166832619Y-73850475D02*
X166118333Y-73659999D01*
X166118333Y-73659999D02*
X166832619Y-73469523D01*
X166832619Y-73469523D02*
X165832619Y-73231428D01*
X165927857Y-72898094D02*
X165880238Y-72850475D01*
X165880238Y-72850475D02*
X165832619Y-72755237D01*
X165832619Y-72755237D02*
X165832619Y-72517142D01*
X165832619Y-72517142D02*
X165880238Y-72421904D01*
X165880238Y-72421904D02*
X165927857Y-72374285D01*
X165927857Y-72374285D02*
X166023095Y-72326666D01*
X166023095Y-72326666D02*
X166118333Y-72326666D01*
X166118333Y-72326666D02*
X166261190Y-72374285D01*
X166261190Y-72374285D02*
X166832619Y-72945713D01*
X166832619Y-72945713D02*
X166832619Y-72326666D01*
%TO.C,J2*%
X121634286Y-95982619D02*
X122205714Y-95982619D01*
X121920000Y-96982619D02*
X121920000Y-95982619D01*
X116302619Y-100536190D02*
X116302619Y-100345714D01*
X116302619Y-100345714D02*
X116350238Y-100250476D01*
X116350238Y-100250476D02*
X116445476Y-100155238D01*
X116445476Y-100155238D02*
X116635952Y-100107619D01*
X116635952Y-100107619D02*
X116969285Y-100107619D01*
X116969285Y-100107619D02*
X117159761Y-100155238D01*
X117159761Y-100155238D02*
X117255000Y-100250476D01*
X117255000Y-100250476D02*
X117302619Y-100345714D01*
X117302619Y-100345714D02*
X117302619Y-100536190D01*
X117302619Y-100536190D02*
X117255000Y-100631428D01*
X117255000Y-100631428D02*
X117159761Y-100726666D01*
X117159761Y-100726666D02*
X116969285Y-100774285D01*
X116969285Y-100774285D02*
X116635952Y-100774285D01*
X116635952Y-100774285D02*
X116445476Y-100726666D01*
X116445476Y-100726666D02*
X116350238Y-100631428D01*
X116350238Y-100631428D02*
X116302619Y-100536190D01*
X116302619Y-99679047D02*
X117112142Y-99679047D01*
X117112142Y-99679047D02*
X117207380Y-99631428D01*
X117207380Y-99631428D02*
X117255000Y-99583809D01*
X117255000Y-99583809D02*
X117302619Y-99488571D01*
X117302619Y-99488571D02*
X117302619Y-99298095D01*
X117302619Y-99298095D02*
X117255000Y-99202857D01*
X117255000Y-99202857D02*
X117207380Y-99155238D01*
X117207380Y-99155238D02*
X117112142Y-99107619D01*
X117112142Y-99107619D02*
X116302619Y-99107619D01*
X116302619Y-98774285D02*
X116302619Y-98202857D01*
X117302619Y-98488571D02*
X116302619Y-98488571D01*
X116397857Y-97917142D02*
X116350238Y-97869523D01*
X116350238Y-97869523D02*
X116302619Y-97774285D01*
X116302619Y-97774285D02*
X116302619Y-97536190D01*
X116302619Y-97536190D02*
X116350238Y-97440952D01*
X116350238Y-97440952D02*
X116397857Y-97393333D01*
X116397857Y-97393333D02*
X116493095Y-97345714D01*
X116493095Y-97345714D02*
X116588333Y-97345714D01*
X116588333Y-97345714D02*
X116731190Y-97393333D01*
X116731190Y-97393333D02*
X117302619Y-97964761D01*
X117302619Y-97964761D02*
X117302619Y-97345714D01*
X119665713Y-96105000D02*
X119522856Y-96057380D01*
X119522856Y-96057380D02*
X119284761Y-96057380D01*
X119284761Y-96057380D02*
X119189523Y-96105000D01*
X119189523Y-96105000D02*
X119141904Y-96152619D01*
X119141904Y-96152619D02*
X119094285Y-96247857D01*
X119094285Y-96247857D02*
X119094285Y-96343095D01*
X119094285Y-96343095D02*
X119141904Y-96438333D01*
X119141904Y-96438333D02*
X119189523Y-96485952D01*
X119189523Y-96485952D02*
X119284761Y-96533571D01*
X119284761Y-96533571D02*
X119475237Y-96581190D01*
X119475237Y-96581190D02*
X119570475Y-96628809D01*
X119570475Y-96628809D02*
X119618094Y-96676428D01*
X119618094Y-96676428D02*
X119665713Y-96771666D01*
X119665713Y-96771666D02*
X119665713Y-96866904D01*
X119665713Y-96866904D02*
X119618094Y-96962142D01*
X119618094Y-96962142D02*
X119570475Y-97009761D01*
X119570475Y-97009761D02*
X119475237Y-97057380D01*
X119475237Y-97057380D02*
X119237142Y-97057380D01*
X119237142Y-97057380D02*
X119094285Y-97009761D01*
X124769523Y-96982619D02*
X124436190Y-96506428D01*
X124198095Y-96982619D02*
X124198095Y-95982619D01*
X124198095Y-95982619D02*
X124579047Y-95982619D01*
X124579047Y-95982619D02*
X124674285Y-96030238D01*
X124674285Y-96030238D02*
X124721904Y-96077857D01*
X124721904Y-96077857D02*
X124769523Y-96173095D01*
X124769523Y-96173095D02*
X124769523Y-96315952D01*
X124769523Y-96315952D02*
X124721904Y-96411190D01*
X124721904Y-96411190D02*
X124674285Y-96458809D01*
X124674285Y-96458809D02*
X124579047Y-96506428D01*
X124579047Y-96506428D02*
X124198095Y-96506428D01*
%TO.C,SW6*%
X150783000Y-98107332D02*
X150830619Y-97964475D01*
X150830619Y-97964475D02*
X150830619Y-97726380D01*
X150830619Y-97726380D02*
X150783000Y-97631142D01*
X150783000Y-97631142D02*
X150735380Y-97583523D01*
X150735380Y-97583523D02*
X150640142Y-97535904D01*
X150640142Y-97535904D02*
X150544904Y-97535904D01*
X150544904Y-97535904D02*
X150449666Y-97583523D01*
X150449666Y-97583523D02*
X150402047Y-97631142D01*
X150402047Y-97631142D02*
X150354428Y-97726380D01*
X150354428Y-97726380D02*
X150306809Y-97916856D01*
X150306809Y-97916856D02*
X150259190Y-98012094D01*
X150259190Y-98012094D02*
X150211571Y-98059713D01*
X150211571Y-98059713D02*
X150116333Y-98107332D01*
X150116333Y-98107332D02*
X150021095Y-98107332D01*
X150021095Y-98107332D02*
X149925857Y-98059713D01*
X149925857Y-98059713D02*
X149878238Y-98012094D01*
X149878238Y-98012094D02*
X149830619Y-97916856D01*
X149830619Y-97916856D02*
X149830619Y-97678761D01*
X149830619Y-97678761D02*
X149878238Y-97535904D01*
X149830619Y-97202570D02*
X150830619Y-96964475D01*
X150830619Y-96964475D02*
X150116333Y-96773999D01*
X150116333Y-96773999D02*
X150830619Y-96583523D01*
X150830619Y-96583523D02*
X149830619Y-96345428D01*
X149830619Y-95535904D02*
X149830619Y-95726380D01*
X149830619Y-95726380D02*
X149878238Y-95821618D01*
X149878238Y-95821618D02*
X149925857Y-95869237D01*
X149925857Y-95869237D02*
X150068714Y-95964475D01*
X150068714Y-95964475D02*
X150259190Y-96012094D01*
X150259190Y-96012094D02*
X150640142Y-96012094D01*
X150640142Y-96012094D02*
X150735380Y-95964475D01*
X150735380Y-95964475D02*
X150783000Y-95916856D01*
X150783000Y-95916856D02*
X150830619Y-95821618D01*
X150830619Y-95821618D02*
X150830619Y-95631142D01*
X150830619Y-95631142D02*
X150783000Y-95535904D01*
X150783000Y-95535904D02*
X150735380Y-95488285D01*
X150735380Y-95488285D02*
X150640142Y-95440666D01*
X150640142Y-95440666D02*
X150402047Y-95440666D01*
X150402047Y-95440666D02*
X150306809Y-95488285D01*
X150306809Y-95488285D02*
X150259190Y-95535904D01*
X150259190Y-95535904D02*
X150211571Y-95631142D01*
X150211571Y-95631142D02*
X150211571Y-95821618D01*
X150211571Y-95821618D02*
X150259190Y-95916856D01*
X150259190Y-95916856D02*
X150306809Y-95964475D01*
X150306809Y-95964475D02*
X150402047Y-96012094D01*
%TO.C,SW1*%
X166785000Y-85788332D02*
X166832619Y-85645475D01*
X166832619Y-85645475D02*
X166832619Y-85407380D01*
X166832619Y-85407380D02*
X166785000Y-85312142D01*
X166785000Y-85312142D02*
X166737380Y-85264523D01*
X166737380Y-85264523D02*
X166642142Y-85216904D01*
X166642142Y-85216904D02*
X166546904Y-85216904D01*
X166546904Y-85216904D02*
X166451666Y-85264523D01*
X166451666Y-85264523D02*
X166404047Y-85312142D01*
X166404047Y-85312142D02*
X166356428Y-85407380D01*
X166356428Y-85407380D02*
X166308809Y-85597856D01*
X166308809Y-85597856D02*
X166261190Y-85693094D01*
X166261190Y-85693094D02*
X166213571Y-85740713D01*
X166213571Y-85740713D02*
X166118333Y-85788332D01*
X166118333Y-85788332D02*
X166023095Y-85788332D01*
X166023095Y-85788332D02*
X165927857Y-85740713D01*
X165927857Y-85740713D02*
X165880238Y-85693094D01*
X165880238Y-85693094D02*
X165832619Y-85597856D01*
X165832619Y-85597856D02*
X165832619Y-85359761D01*
X165832619Y-85359761D02*
X165880238Y-85216904D01*
X165832619Y-84883570D02*
X166832619Y-84645475D01*
X166832619Y-84645475D02*
X166118333Y-84454999D01*
X166118333Y-84454999D02*
X166832619Y-84264523D01*
X166832619Y-84264523D02*
X165832619Y-84026428D01*
X166832619Y-83121666D02*
X166832619Y-83693094D01*
X166832619Y-83407380D02*
X165832619Y-83407380D01*
X165832619Y-83407380D02*
X165975476Y-83502618D01*
X165975476Y-83502618D02*
X166070714Y-83597856D01*
X166070714Y-83597856D02*
X166118333Y-83693094D01*
%TO.C,U2*%
X140843095Y-119477619D02*
X140843095Y-120287142D01*
X140843095Y-120287142D02*
X140890714Y-120382380D01*
X140890714Y-120382380D02*
X140938333Y-120430000D01*
X140938333Y-120430000D02*
X141033571Y-120477619D01*
X141033571Y-120477619D02*
X141224047Y-120477619D01*
X141224047Y-120477619D02*
X141319285Y-120430000D01*
X141319285Y-120430000D02*
X141366904Y-120382380D01*
X141366904Y-120382380D02*
X141414523Y-120287142D01*
X141414523Y-120287142D02*
X141414523Y-119477619D01*
X141843095Y-119572857D02*
X141890714Y-119525238D01*
X141890714Y-119525238D02*
X141985952Y-119477619D01*
X141985952Y-119477619D02*
X142224047Y-119477619D01*
X142224047Y-119477619D02*
X142319285Y-119525238D01*
X142319285Y-119525238D02*
X142366904Y-119572857D01*
X142366904Y-119572857D02*
X142414523Y-119668095D01*
X142414523Y-119668095D02*
X142414523Y-119763333D01*
X142414523Y-119763333D02*
X142366904Y-119906190D01*
X142366904Y-119906190D02*
X141795476Y-120477619D01*
X141795476Y-120477619D02*
X142414523Y-120477619D01*
%TO.C,R10*%
X131437142Y-80217619D02*
X131103809Y-79741428D01*
X130865714Y-80217619D02*
X130865714Y-79217619D01*
X130865714Y-79217619D02*
X131246666Y-79217619D01*
X131246666Y-79217619D02*
X131341904Y-79265238D01*
X131341904Y-79265238D02*
X131389523Y-79312857D01*
X131389523Y-79312857D02*
X131437142Y-79408095D01*
X131437142Y-79408095D02*
X131437142Y-79550952D01*
X131437142Y-79550952D02*
X131389523Y-79646190D01*
X131389523Y-79646190D02*
X131341904Y-79693809D01*
X131341904Y-79693809D02*
X131246666Y-79741428D01*
X131246666Y-79741428D02*
X130865714Y-79741428D01*
X132389523Y-80217619D02*
X131818095Y-80217619D01*
X132103809Y-80217619D02*
X132103809Y-79217619D01*
X132103809Y-79217619D02*
X132008571Y-79360476D01*
X132008571Y-79360476D02*
X131913333Y-79455714D01*
X131913333Y-79455714D02*
X131818095Y-79503333D01*
X133008571Y-79217619D02*
X133103809Y-79217619D01*
X133103809Y-79217619D02*
X133199047Y-79265238D01*
X133199047Y-79265238D02*
X133246666Y-79312857D01*
X133246666Y-79312857D02*
X133294285Y-79408095D01*
X133294285Y-79408095D02*
X133341904Y-79598571D01*
X133341904Y-79598571D02*
X133341904Y-79836666D01*
X133341904Y-79836666D02*
X133294285Y-80027142D01*
X133294285Y-80027142D02*
X133246666Y-80122380D01*
X133246666Y-80122380D02*
X133199047Y-80170000D01*
X133199047Y-80170000D02*
X133103809Y-80217619D01*
X133103809Y-80217619D02*
X133008571Y-80217619D01*
X133008571Y-80217619D02*
X132913333Y-80170000D01*
X132913333Y-80170000D02*
X132865714Y-80122380D01*
X132865714Y-80122380D02*
X132818095Y-80027142D01*
X132818095Y-80027142D02*
X132770476Y-79836666D01*
X132770476Y-79836666D02*
X132770476Y-79598571D01*
X132770476Y-79598571D02*
X132818095Y-79408095D01*
X132818095Y-79408095D02*
X132865714Y-79312857D01*
X132865714Y-79312857D02*
X132913333Y-79265238D01*
X132913333Y-79265238D02*
X133008571Y-79217619D01*
%TO.C,C2*%
X145782380Y-84434166D02*
X145830000Y-84481785D01*
X145830000Y-84481785D02*
X145877619Y-84624642D01*
X145877619Y-84624642D02*
X145877619Y-84719880D01*
X145877619Y-84719880D02*
X145830000Y-84862737D01*
X145830000Y-84862737D02*
X145734761Y-84957975D01*
X145734761Y-84957975D02*
X145639523Y-85005594D01*
X145639523Y-85005594D02*
X145449047Y-85053213D01*
X145449047Y-85053213D02*
X145306190Y-85053213D01*
X145306190Y-85053213D02*
X145115714Y-85005594D01*
X145115714Y-85005594D02*
X145020476Y-84957975D01*
X145020476Y-84957975D02*
X144925238Y-84862737D01*
X144925238Y-84862737D02*
X144877619Y-84719880D01*
X144877619Y-84719880D02*
X144877619Y-84624642D01*
X144877619Y-84624642D02*
X144925238Y-84481785D01*
X144925238Y-84481785D02*
X144972857Y-84434166D01*
X144972857Y-84053213D02*
X144925238Y-84005594D01*
X144925238Y-84005594D02*
X144877619Y-83910356D01*
X144877619Y-83910356D02*
X144877619Y-83672261D01*
X144877619Y-83672261D02*
X144925238Y-83577023D01*
X144925238Y-83577023D02*
X144972857Y-83529404D01*
X144972857Y-83529404D02*
X145068095Y-83481785D01*
X145068095Y-83481785D02*
X145163333Y-83481785D01*
X145163333Y-83481785D02*
X145306190Y-83529404D01*
X145306190Y-83529404D02*
X145877619Y-84100832D01*
X145877619Y-84100832D02*
X145877619Y-83481785D01*
%TO.C,SW4*%
X115985000Y-85788332D02*
X116032619Y-85645475D01*
X116032619Y-85645475D02*
X116032619Y-85407380D01*
X116032619Y-85407380D02*
X115985000Y-85312142D01*
X115985000Y-85312142D02*
X115937380Y-85264523D01*
X115937380Y-85264523D02*
X115842142Y-85216904D01*
X115842142Y-85216904D02*
X115746904Y-85216904D01*
X115746904Y-85216904D02*
X115651666Y-85264523D01*
X115651666Y-85264523D02*
X115604047Y-85312142D01*
X115604047Y-85312142D02*
X115556428Y-85407380D01*
X115556428Y-85407380D02*
X115508809Y-85597856D01*
X115508809Y-85597856D02*
X115461190Y-85693094D01*
X115461190Y-85693094D02*
X115413571Y-85740713D01*
X115413571Y-85740713D02*
X115318333Y-85788332D01*
X115318333Y-85788332D02*
X115223095Y-85788332D01*
X115223095Y-85788332D02*
X115127857Y-85740713D01*
X115127857Y-85740713D02*
X115080238Y-85693094D01*
X115080238Y-85693094D02*
X115032619Y-85597856D01*
X115032619Y-85597856D02*
X115032619Y-85359761D01*
X115032619Y-85359761D02*
X115080238Y-85216904D01*
X115032619Y-84883570D02*
X116032619Y-84645475D01*
X116032619Y-84645475D02*
X115318333Y-84454999D01*
X115318333Y-84454999D02*
X116032619Y-84264523D01*
X116032619Y-84264523D02*
X115032619Y-84026428D01*
X115365952Y-83216904D02*
X116032619Y-83216904D01*
X114985000Y-83454999D02*
X115699285Y-83693094D01*
X115699285Y-83693094D02*
X115699285Y-83074047D01*
%TO.C,SW3*%
X115910000Y-75918332D02*
X115957619Y-75775475D01*
X115957619Y-75775475D02*
X115957619Y-75537380D01*
X115957619Y-75537380D02*
X115910000Y-75442142D01*
X115910000Y-75442142D02*
X115862380Y-75394523D01*
X115862380Y-75394523D02*
X115767142Y-75346904D01*
X115767142Y-75346904D02*
X115671904Y-75346904D01*
X115671904Y-75346904D02*
X115576666Y-75394523D01*
X115576666Y-75394523D02*
X115529047Y-75442142D01*
X115529047Y-75442142D02*
X115481428Y-75537380D01*
X115481428Y-75537380D02*
X115433809Y-75727856D01*
X115433809Y-75727856D02*
X115386190Y-75823094D01*
X115386190Y-75823094D02*
X115338571Y-75870713D01*
X115338571Y-75870713D02*
X115243333Y-75918332D01*
X115243333Y-75918332D02*
X115148095Y-75918332D01*
X115148095Y-75918332D02*
X115052857Y-75870713D01*
X115052857Y-75870713D02*
X115005238Y-75823094D01*
X115005238Y-75823094D02*
X114957619Y-75727856D01*
X114957619Y-75727856D02*
X114957619Y-75489761D01*
X114957619Y-75489761D02*
X115005238Y-75346904D01*
X114957619Y-75013570D02*
X115957619Y-74775475D01*
X115957619Y-74775475D02*
X115243333Y-74584999D01*
X115243333Y-74584999D02*
X115957619Y-74394523D01*
X115957619Y-74394523D02*
X114957619Y-74156428D01*
X114957619Y-73870713D02*
X114957619Y-73251666D01*
X114957619Y-73251666D02*
X115338571Y-73584999D01*
X115338571Y-73584999D02*
X115338571Y-73442142D01*
X115338571Y-73442142D02*
X115386190Y-73346904D01*
X115386190Y-73346904D02*
X115433809Y-73299285D01*
X115433809Y-73299285D02*
X115529047Y-73251666D01*
X115529047Y-73251666D02*
X115767142Y-73251666D01*
X115767142Y-73251666D02*
X115862380Y-73299285D01*
X115862380Y-73299285D02*
X115910000Y-73346904D01*
X115910000Y-73346904D02*
X115957619Y-73442142D01*
X115957619Y-73442142D02*
X115957619Y-73727856D01*
X115957619Y-73727856D02*
X115910000Y-73823094D01*
X115910000Y-73823094D02*
X115862380Y-73870713D01*
%TO.C,J5*%
X133651666Y-64867619D02*
X133651666Y-65581904D01*
X133651666Y-65581904D02*
X133604047Y-65724761D01*
X133604047Y-65724761D02*
X133508809Y-65820000D01*
X133508809Y-65820000D02*
X133365952Y-65867619D01*
X133365952Y-65867619D02*
X133270714Y-65867619D01*
X134604047Y-64867619D02*
X134127857Y-64867619D01*
X134127857Y-64867619D02*
X134080238Y-65343809D01*
X134080238Y-65343809D02*
X134127857Y-65296190D01*
X134127857Y-65296190D02*
X134223095Y-65248571D01*
X134223095Y-65248571D02*
X134461190Y-65248571D01*
X134461190Y-65248571D02*
X134556428Y-65296190D01*
X134556428Y-65296190D02*
X134604047Y-65343809D01*
X134604047Y-65343809D02*
X134651666Y-65439047D01*
X134651666Y-65439047D02*
X134651666Y-65677142D01*
X134651666Y-65677142D02*
X134604047Y-65772380D01*
X134604047Y-65772380D02*
X134556428Y-65820000D01*
X134556428Y-65820000D02*
X134461190Y-65867619D01*
X134461190Y-65867619D02*
X134223095Y-65867619D01*
X134223095Y-65867619D02*
X134127857Y-65820000D01*
X134127857Y-65820000D02*
X134080238Y-65772380D01*
%TO.C,R3*%
X156948333Y-112857619D02*
X156615000Y-112381428D01*
X156376905Y-112857619D02*
X156376905Y-111857619D01*
X156376905Y-111857619D02*
X156757857Y-111857619D01*
X156757857Y-111857619D02*
X156853095Y-111905238D01*
X156853095Y-111905238D02*
X156900714Y-111952857D01*
X156900714Y-111952857D02*
X156948333Y-112048095D01*
X156948333Y-112048095D02*
X156948333Y-112190952D01*
X156948333Y-112190952D02*
X156900714Y-112286190D01*
X156900714Y-112286190D02*
X156853095Y-112333809D01*
X156853095Y-112333809D02*
X156757857Y-112381428D01*
X156757857Y-112381428D02*
X156376905Y-112381428D01*
X157281667Y-111857619D02*
X157900714Y-111857619D01*
X157900714Y-111857619D02*
X157567381Y-112238571D01*
X157567381Y-112238571D02*
X157710238Y-112238571D01*
X157710238Y-112238571D02*
X157805476Y-112286190D01*
X157805476Y-112286190D02*
X157853095Y-112333809D01*
X157853095Y-112333809D02*
X157900714Y-112429047D01*
X157900714Y-112429047D02*
X157900714Y-112667142D01*
X157900714Y-112667142D02*
X157853095Y-112762380D01*
X157853095Y-112762380D02*
X157805476Y-112810000D01*
X157805476Y-112810000D02*
X157710238Y-112857619D01*
X157710238Y-112857619D02*
X157424524Y-112857619D01*
X157424524Y-112857619D02*
X157329286Y-112810000D01*
X157329286Y-112810000D02*
X157281667Y-112762380D01*
%TO.C,U3*%
X156440119Y-107121904D02*
X157249642Y-107121904D01*
X157249642Y-107121904D02*
X157344880Y-107074285D01*
X157344880Y-107074285D02*
X157392500Y-107026666D01*
X157392500Y-107026666D02*
X157440119Y-106931428D01*
X157440119Y-106931428D02*
X157440119Y-106740952D01*
X157440119Y-106740952D02*
X157392500Y-106645714D01*
X157392500Y-106645714D02*
X157344880Y-106598095D01*
X157344880Y-106598095D02*
X157249642Y-106550476D01*
X157249642Y-106550476D02*
X156440119Y-106550476D01*
X156440119Y-106169523D02*
X156440119Y-105550476D01*
X156440119Y-105550476D02*
X156821071Y-105883809D01*
X156821071Y-105883809D02*
X156821071Y-105740952D01*
X156821071Y-105740952D02*
X156868690Y-105645714D01*
X156868690Y-105645714D02*
X156916309Y-105598095D01*
X156916309Y-105598095D02*
X157011547Y-105550476D01*
X157011547Y-105550476D02*
X157249642Y-105550476D01*
X157249642Y-105550476D02*
X157344880Y-105598095D01*
X157344880Y-105598095D02*
X157392500Y-105645714D01*
X157392500Y-105645714D02*
X157440119Y-105740952D01*
X157440119Y-105740952D02*
X157440119Y-106026666D01*
X157440119Y-106026666D02*
X157392500Y-106121904D01*
X157392500Y-106121904D02*
X157344880Y-106169523D01*
%TO.C,C7*%
X157847380Y-103036666D02*
X157895000Y-103084285D01*
X157895000Y-103084285D02*
X157942619Y-103227142D01*
X157942619Y-103227142D02*
X157942619Y-103322380D01*
X157942619Y-103322380D02*
X157895000Y-103465237D01*
X157895000Y-103465237D02*
X157799761Y-103560475D01*
X157799761Y-103560475D02*
X157704523Y-103608094D01*
X157704523Y-103608094D02*
X157514047Y-103655713D01*
X157514047Y-103655713D02*
X157371190Y-103655713D01*
X157371190Y-103655713D02*
X157180714Y-103608094D01*
X157180714Y-103608094D02*
X157085476Y-103560475D01*
X157085476Y-103560475D02*
X156990238Y-103465237D01*
X156990238Y-103465237D02*
X156942619Y-103322380D01*
X156942619Y-103322380D02*
X156942619Y-103227142D01*
X156942619Y-103227142D02*
X156990238Y-103084285D01*
X156990238Y-103084285D02*
X157037857Y-103036666D01*
X156942619Y-102703332D02*
X156942619Y-102036666D01*
X156942619Y-102036666D02*
X157942619Y-102465237D01*
%TO.C,J4*%
X130476666Y-115286619D02*
X130476666Y-116000904D01*
X130476666Y-116000904D02*
X130429047Y-116143761D01*
X130429047Y-116143761D02*
X130333809Y-116239000D01*
X130333809Y-116239000D02*
X130190952Y-116286619D01*
X130190952Y-116286619D02*
X130095714Y-116286619D01*
X131381428Y-115619952D02*
X131381428Y-116286619D01*
X131143333Y-115239000D02*
X130905238Y-115953285D01*
X130905238Y-115953285D02*
X131524285Y-115953285D01*
%TO.C,TP3*%
X139162619Y-73596904D02*
X139162619Y-73025476D01*
X140162619Y-73311190D02*
X139162619Y-73311190D01*
X140162619Y-72692142D02*
X139162619Y-72692142D01*
X139162619Y-72692142D02*
X139162619Y-72311190D01*
X139162619Y-72311190D02*
X139210238Y-72215952D01*
X139210238Y-72215952D02*
X139257857Y-72168333D01*
X139257857Y-72168333D02*
X139353095Y-72120714D01*
X139353095Y-72120714D02*
X139495952Y-72120714D01*
X139495952Y-72120714D02*
X139591190Y-72168333D01*
X139591190Y-72168333D02*
X139638809Y-72215952D01*
X139638809Y-72215952D02*
X139686428Y-72311190D01*
X139686428Y-72311190D02*
X139686428Y-72692142D01*
X139162619Y-71787380D02*
X139162619Y-71168333D01*
X139162619Y-71168333D02*
X139543571Y-71501666D01*
X139543571Y-71501666D02*
X139543571Y-71358809D01*
X139543571Y-71358809D02*
X139591190Y-71263571D01*
X139591190Y-71263571D02*
X139638809Y-71215952D01*
X139638809Y-71215952D02*
X139734047Y-71168333D01*
X139734047Y-71168333D02*
X139972142Y-71168333D01*
X139972142Y-71168333D02*
X140067380Y-71215952D01*
X140067380Y-71215952D02*
X140115000Y-71263571D01*
X140115000Y-71263571D02*
X140162619Y-71358809D01*
X140162619Y-71358809D02*
X140162619Y-71644523D01*
X140162619Y-71644523D02*
X140115000Y-71739761D01*
X140115000Y-71739761D02*
X140067380Y-71787380D01*
%TO.C,R2*%
X129489333Y-103967619D02*
X129156000Y-103491428D01*
X128917905Y-103967619D02*
X128917905Y-102967619D01*
X128917905Y-102967619D02*
X129298857Y-102967619D01*
X129298857Y-102967619D02*
X129394095Y-103015238D01*
X129394095Y-103015238D02*
X129441714Y-103062857D01*
X129441714Y-103062857D02*
X129489333Y-103158095D01*
X129489333Y-103158095D02*
X129489333Y-103300952D01*
X129489333Y-103300952D02*
X129441714Y-103396190D01*
X129441714Y-103396190D02*
X129394095Y-103443809D01*
X129394095Y-103443809D02*
X129298857Y-103491428D01*
X129298857Y-103491428D02*
X128917905Y-103491428D01*
X129870286Y-103062857D02*
X129917905Y-103015238D01*
X129917905Y-103015238D02*
X130013143Y-102967619D01*
X130013143Y-102967619D02*
X130251238Y-102967619D01*
X130251238Y-102967619D02*
X130346476Y-103015238D01*
X130346476Y-103015238D02*
X130394095Y-103062857D01*
X130394095Y-103062857D02*
X130441714Y-103158095D01*
X130441714Y-103158095D02*
X130441714Y-103253333D01*
X130441714Y-103253333D02*
X130394095Y-103396190D01*
X130394095Y-103396190D02*
X129822667Y-103967619D01*
X129822667Y-103967619D02*
X130441714Y-103967619D01*
%TO.C,J6*%
X164139523Y-96347619D02*
X163806190Y-95871428D01*
X163568095Y-96347619D02*
X163568095Y-95347619D01*
X163568095Y-95347619D02*
X163949047Y-95347619D01*
X163949047Y-95347619D02*
X164044285Y-95395238D01*
X164044285Y-95395238D02*
X164091904Y-95442857D01*
X164091904Y-95442857D02*
X164139523Y-95538095D01*
X164139523Y-95538095D02*
X164139523Y-95680952D01*
X164139523Y-95680952D02*
X164091904Y-95776190D01*
X164091904Y-95776190D02*
X164044285Y-95823809D01*
X164044285Y-95823809D02*
X163949047Y-95871428D01*
X163949047Y-95871428D02*
X163568095Y-95871428D01*
X155672619Y-100536190D02*
X155672619Y-100345714D01*
X155672619Y-100345714D02*
X155720238Y-100250476D01*
X155720238Y-100250476D02*
X155815476Y-100155238D01*
X155815476Y-100155238D02*
X156005952Y-100107619D01*
X156005952Y-100107619D02*
X156339285Y-100107619D01*
X156339285Y-100107619D02*
X156529761Y-100155238D01*
X156529761Y-100155238D02*
X156625000Y-100250476D01*
X156625000Y-100250476D02*
X156672619Y-100345714D01*
X156672619Y-100345714D02*
X156672619Y-100536190D01*
X156672619Y-100536190D02*
X156625000Y-100631428D01*
X156625000Y-100631428D02*
X156529761Y-100726666D01*
X156529761Y-100726666D02*
X156339285Y-100774285D01*
X156339285Y-100774285D02*
X156005952Y-100774285D01*
X156005952Y-100774285D02*
X155815476Y-100726666D01*
X155815476Y-100726666D02*
X155720238Y-100631428D01*
X155720238Y-100631428D02*
X155672619Y-100536190D01*
X155672619Y-99679047D02*
X156482142Y-99679047D01*
X156482142Y-99679047D02*
X156577380Y-99631428D01*
X156577380Y-99631428D02*
X156625000Y-99583809D01*
X156625000Y-99583809D02*
X156672619Y-99488571D01*
X156672619Y-99488571D02*
X156672619Y-99298095D01*
X156672619Y-99298095D02*
X156625000Y-99202857D01*
X156625000Y-99202857D02*
X156577380Y-99155238D01*
X156577380Y-99155238D02*
X156482142Y-99107619D01*
X156482142Y-99107619D02*
X155672619Y-99107619D01*
X155672619Y-98774285D02*
X155672619Y-98202857D01*
X156672619Y-98488571D02*
X155672619Y-98488571D01*
X156672619Y-97345714D02*
X156672619Y-97917142D01*
X156672619Y-97631428D02*
X155672619Y-97631428D01*
X155672619Y-97631428D02*
X155815476Y-97726666D01*
X155815476Y-97726666D02*
X155910714Y-97821904D01*
X155910714Y-97821904D02*
X155958333Y-97917142D01*
X161004286Y-95347619D02*
X161575714Y-95347619D01*
X161290000Y-96347619D02*
X161290000Y-95347619D01*
X159035713Y-95470000D02*
X158892856Y-95422380D01*
X158892856Y-95422380D02*
X158654761Y-95422380D01*
X158654761Y-95422380D02*
X158559523Y-95470000D01*
X158559523Y-95470000D02*
X158511904Y-95517619D01*
X158511904Y-95517619D02*
X158464285Y-95612857D01*
X158464285Y-95612857D02*
X158464285Y-95708095D01*
X158464285Y-95708095D02*
X158511904Y-95803333D01*
X158511904Y-95803333D02*
X158559523Y-95850952D01*
X158559523Y-95850952D02*
X158654761Y-95898571D01*
X158654761Y-95898571D02*
X158845237Y-95946190D01*
X158845237Y-95946190D02*
X158940475Y-95993809D01*
X158940475Y-95993809D02*
X158988094Y-96041428D01*
X158988094Y-96041428D02*
X159035713Y-96136666D01*
X159035713Y-96136666D02*
X159035713Y-96231904D01*
X159035713Y-96231904D02*
X158988094Y-96327142D01*
X158988094Y-96327142D02*
X158940475Y-96374761D01*
X158940475Y-96374761D02*
X158845237Y-96422380D01*
X158845237Y-96422380D02*
X158607142Y-96422380D01*
X158607142Y-96422380D02*
X158464285Y-96374761D01*
%TO.C,TP4*%
X136622619Y-73596904D02*
X136622619Y-73025476D01*
X137622619Y-73311190D02*
X136622619Y-73311190D01*
X137622619Y-72692142D02*
X136622619Y-72692142D01*
X136622619Y-72692142D02*
X136622619Y-72311190D01*
X136622619Y-72311190D02*
X136670238Y-72215952D01*
X136670238Y-72215952D02*
X136717857Y-72168333D01*
X136717857Y-72168333D02*
X136813095Y-72120714D01*
X136813095Y-72120714D02*
X136955952Y-72120714D01*
X136955952Y-72120714D02*
X137051190Y-72168333D01*
X137051190Y-72168333D02*
X137098809Y-72215952D01*
X137098809Y-72215952D02*
X137146428Y-72311190D01*
X137146428Y-72311190D02*
X137146428Y-72692142D01*
X136955952Y-71263571D02*
X137622619Y-71263571D01*
X136575000Y-71501666D02*
X137289285Y-71739761D01*
X137289285Y-71739761D02*
X137289285Y-71120714D01*
%TO.C,C1*%
X143242380Y-84434166D02*
X143290000Y-84481785D01*
X143290000Y-84481785D02*
X143337619Y-84624642D01*
X143337619Y-84624642D02*
X143337619Y-84719880D01*
X143337619Y-84719880D02*
X143290000Y-84862737D01*
X143290000Y-84862737D02*
X143194761Y-84957975D01*
X143194761Y-84957975D02*
X143099523Y-85005594D01*
X143099523Y-85005594D02*
X142909047Y-85053213D01*
X142909047Y-85053213D02*
X142766190Y-85053213D01*
X142766190Y-85053213D02*
X142575714Y-85005594D01*
X142575714Y-85005594D02*
X142480476Y-84957975D01*
X142480476Y-84957975D02*
X142385238Y-84862737D01*
X142385238Y-84862737D02*
X142337619Y-84719880D01*
X142337619Y-84719880D02*
X142337619Y-84624642D01*
X142337619Y-84624642D02*
X142385238Y-84481785D01*
X142385238Y-84481785D02*
X142432857Y-84434166D01*
X143337619Y-83481785D02*
X143337619Y-84053213D01*
X143337619Y-83767499D02*
X142337619Y-83767499D01*
X142337619Y-83767499D02*
X142480476Y-83862737D01*
X142480476Y-83862737D02*
X142575714Y-83957975D01*
X142575714Y-83957975D02*
X142623333Y-84053213D01*
%TO.C,C5*%
X130816833Y-120001380D02*
X130769214Y-120049000D01*
X130769214Y-120049000D02*
X130626357Y-120096619D01*
X130626357Y-120096619D02*
X130531119Y-120096619D01*
X130531119Y-120096619D02*
X130388262Y-120049000D01*
X130388262Y-120049000D02*
X130293024Y-119953761D01*
X130293024Y-119953761D02*
X130245405Y-119858523D01*
X130245405Y-119858523D02*
X130197786Y-119668047D01*
X130197786Y-119668047D02*
X130197786Y-119525190D01*
X130197786Y-119525190D02*
X130245405Y-119334714D01*
X130245405Y-119334714D02*
X130293024Y-119239476D01*
X130293024Y-119239476D02*
X130388262Y-119144238D01*
X130388262Y-119144238D02*
X130531119Y-119096619D01*
X130531119Y-119096619D02*
X130626357Y-119096619D01*
X130626357Y-119096619D02*
X130769214Y-119144238D01*
X130769214Y-119144238D02*
X130816833Y-119191857D01*
X131721595Y-119096619D02*
X131245405Y-119096619D01*
X131245405Y-119096619D02*
X131197786Y-119572809D01*
X131197786Y-119572809D02*
X131245405Y-119525190D01*
X131245405Y-119525190D02*
X131340643Y-119477571D01*
X131340643Y-119477571D02*
X131578738Y-119477571D01*
X131578738Y-119477571D02*
X131673976Y-119525190D01*
X131673976Y-119525190D02*
X131721595Y-119572809D01*
X131721595Y-119572809D02*
X131769214Y-119668047D01*
X131769214Y-119668047D02*
X131769214Y-119906142D01*
X131769214Y-119906142D02*
X131721595Y-120001380D01*
X131721595Y-120001380D02*
X131673976Y-120049000D01*
X131673976Y-120049000D02*
X131578738Y-120096619D01*
X131578738Y-120096619D02*
X131340643Y-120096619D01*
X131340643Y-120096619D02*
X131245405Y-120049000D01*
X131245405Y-120049000D02*
X131197786Y-120001380D01*
%TO.C,TP2*%
X141194619Y-73596904D02*
X141194619Y-73025476D01*
X142194619Y-73311190D02*
X141194619Y-73311190D01*
X142194619Y-72692142D02*
X141194619Y-72692142D01*
X141194619Y-72692142D02*
X141194619Y-72311190D01*
X141194619Y-72311190D02*
X141242238Y-72215952D01*
X141242238Y-72215952D02*
X141289857Y-72168333D01*
X141289857Y-72168333D02*
X141385095Y-72120714D01*
X141385095Y-72120714D02*
X141527952Y-72120714D01*
X141527952Y-72120714D02*
X141623190Y-72168333D01*
X141623190Y-72168333D02*
X141670809Y-72215952D01*
X141670809Y-72215952D02*
X141718428Y-72311190D01*
X141718428Y-72311190D02*
X141718428Y-72692142D01*
X141289857Y-71739761D02*
X141242238Y-71692142D01*
X141242238Y-71692142D02*
X141194619Y-71596904D01*
X141194619Y-71596904D02*
X141194619Y-71358809D01*
X141194619Y-71358809D02*
X141242238Y-71263571D01*
X141242238Y-71263571D02*
X141289857Y-71215952D01*
X141289857Y-71215952D02*
X141385095Y-71168333D01*
X141385095Y-71168333D02*
X141480333Y-71168333D01*
X141480333Y-71168333D02*
X141623190Y-71215952D01*
X141623190Y-71215952D02*
X142194619Y-71787380D01*
X142194619Y-71787380D02*
X142194619Y-71168333D01*
%TO.C,C3*%
X140067380Y-84451666D02*
X140115000Y-84499285D01*
X140115000Y-84499285D02*
X140162619Y-84642142D01*
X140162619Y-84642142D02*
X140162619Y-84737380D01*
X140162619Y-84737380D02*
X140115000Y-84880237D01*
X140115000Y-84880237D02*
X140019761Y-84975475D01*
X140019761Y-84975475D02*
X139924523Y-85023094D01*
X139924523Y-85023094D02*
X139734047Y-85070713D01*
X139734047Y-85070713D02*
X139591190Y-85070713D01*
X139591190Y-85070713D02*
X139400714Y-85023094D01*
X139400714Y-85023094D02*
X139305476Y-84975475D01*
X139305476Y-84975475D02*
X139210238Y-84880237D01*
X139210238Y-84880237D02*
X139162619Y-84737380D01*
X139162619Y-84737380D02*
X139162619Y-84642142D01*
X139162619Y-84642142D02*
X139210238Y-84499285D01*
X139210238Y-84499285D02*
X139257857Y-84451666D01*
X139162619Y-84118332D02*
X139162619Y-83499285D01*
X139162619Y-83499285D02*
X139543571Y-83832618D01*
X139543571Y-83832618D02*
X139543571Y-83689761D01*
X139543571Y-83689761D02*
X139591190Y-83594523D01*
X139591190Y-83594523D02*
X139638809Y-83546904D01*
X139638809Y-83546904D02*
X139734047Y-83499285D01*
X139734047Y-83499285D02*
X139972142Y-83499285D01*
X139972142Y-83499285D02*
X140067380Y-83546904D01*
X140067380Y-83546904D02*
X140115000Y-83594523D01*
X140115000Y-83594523D02*
X140162619Y-83689761D01*
X140162619Y-83689761D02*
X140162619Y-83975475D01*
X140162619Y-83975475D02*
X140115000Y-84070713D01*
X140115000Y-84070713D02*
X140067380Y-84118332D01*
%TO.C,U1*%
X135739619Y-78938904D02*
X136549142Y-78938904D01*
X136549142Y-78938904D02*
X136644380Y-78891285D01*
X136644380Y-78891285D02*
X136692000Y-78843666D01*
X136692000Y-78843666D02*
X136739619Y-78748428D01*
X136739619Y-78748428D02*
X136739619Y-78557952D01*
X136739619Y-78557952D02*
X136692000Y-78462714D01*
X136692000Y-78462714D02*
X136644380Y-78415095D01*
X136644380Y-78415095D02*
X136549142Y-78367476D01*
X136549142Y-78367476D02*
X135739619Y-78367476D01*
X136739619Y-77367476D02*
X136739619Y-77938904D01*
X136739619Y-77653190D02*
X135739619Y-77653190D01*
X135739619Y-77653190D02*
X135882476Y-77748428D01*
X135882476Y-77748428D02*
X135977714Y-77843666D01*
X135977714Y-77843666D02*
X136025333Y-77938904D01*
%TO.C,R5*%
X124293333Y-112857619D02*
X123960000Y-112381428D01*
X123721905Y-112857619D02*
X123721905Y-111857619D01*
X123721905Y-111857619D02*
X124102857Y-111857619D01*
X124102857Y-111857619D02*
X124198095Y-111905238D01*
X124198095Y-111905238D02*
X124245714Y-111952857D01*
X124245714Y-111952857D02*
X124293333Y-112048095D01*
X124293333Y-112048095D02*
X124293333Y-112190952D01*
X124293333Y-112190952D02*
X124245714Y-112286190D01*
X124245714Y-112286190D02*
X124198095Y-112333809D01*
X124198095Y-112333809D02*
X124102857Y-112381428D01*
X124102857Y-112381428D02*
X123721905Y-112381428D01*
X125198095Y-111857619D02*
X124721905Y-111857619D01*
X124721905Y-111857619D02*
X124674286Y-112333809D01*
X124674286Y-112333809D02*
X124721905Y-112286190D01*
X124721905Y-112286190D02*
X124817143Y-112238571D01*
X124817143Y-112238571D02*
X125055238Y-112238571D01*
X125055238Y-112238571D02*
X125150476Y-112286190D01*
X125150476Y-112286190D02*
X125198095Y-112333809D01*
X125198095Y-112333809D02*
X125245714Y-112429047D01*
X125245714Y-112429047D02*
X125245714Y-112667142D01*
X125245714Y-112667142D02*
X125198095Y-112762380D01*
X125198095Y-112762380D02*
X125150476Y-112810000D01*
X125150476Y-112810000D02*
X125055238Y-112857619D01*
X125055238Y-112857619D02*
X124817143Y-112857619D01*
X124817143Y-112857619D02*
X124721905Y-112810000D01*
X124721905Y-112810000D02*
X124674286Y-112762380D01*
%TO.C,U4*%
X122936095Y-106142619D02*
X122936095Y-106952142D01*
X122936095Y-106952142D02*
X122983714Y-107047380D01*
X122983714Y-107047380D02*
X123031333Y-107095000D01*
X123031333Y-107095000D02*
X123126571Y-107142619D01*
X123126571Y-107142619D02*
X123317047Y-107142619D01*
X123317047Y-107142619D02*
X123412285Y-107095000D01*
X123412285Y-107095000D02*
X123459904Y-107047380D01*
X123459904Y-107047380D02*
X123507523Y-106952142D01*
X123507523Y-106952142D02*
X123507523Y-106142619D01*
X124412285Y-106475952D02*
X124412285Y-107142619D01*
X124174190Y-106095000D02*
X123936095Y-106809285D01*
X123936095Y-106809285D02*
X124555142Y-106809285D01*
%TO.C,C8*%
X124065380Y-103036666D02*
X124113000Y-103084285D01*
X124113000Y-103084285D02*
X124160619Y-103227142D01*
X124160619Y-103227142D02*
X124160619Y-103322380D01*
X124160619Y-103322380D02*
X124113000Y-103465237D01*
X124113000Y-103465237D02*
X124017761Y-103560475D01*
X124017761Y-103560475D02*
X123922523Y-103608094D01*
X123922523Y-103608094D02*
X123732047Y-103655713D01*
X123732047Y-103655713D02*
X123589190Y-103655713D01*
X123589190Y-103655713D02*
X123398714Y-103608094D01*
X123398714Y-103608094D02*
X123303476Y-103560475D01*
X123303476Y-103560475D02*
X123208238Y-103465237D01*
X123208238Y-103465237D02*
X123160619Y-103322380D01*
X123160619Y-103322380D02*
X123160619Y-103227142D01*
X123160619Y-103227142D02*
X123208238Y-103084285D01*
X123208238Y-103084285D02*
X123255857Y-103036666D01*
X123589190Y-102465237D02*
X123541571Y-102560475D01*
X123541571Y-102560475D02*
X123493952Y-102608094D01*
X123493952Y-102608094D02*
X123398714Y-102655713D01*
X123398714Y-102655713D02*
X123351095Y-102655713D01*
X123351095Y-102655713D02*
X123255857Y-102608094D01*
X123255857Y-102608094D02*
X123208238Y-102560475D01*
X123208238Y-102560475D02*
X123160619Y-102465237D01*
X123160619Y-102465237D02*
X123160619Y-102274761D01*
X123160619Y-102274761D02*
X123208238Y-102179523D01*
X123208238Y-102179523D02*
X123255857Y-102131904D01*
X123255857Y-102131904D02*
X123351095Y-102084285D01*
X123351095Y-102084285D02*
X123398714Y-102084285D01*
X123398714Y-102084285D02*
X123493952Y-102131904D01*
X123493952Y-102131904D02*
X123541571Y-102179523D01*
X123541571Y-102179523D02*
X123589190Y-102274761D01*
X123589190Y-102274761D02*
X123589190Y-102465237D01*
X123589190Y-102465237D02*
X123636809Y-102560475D01*
X123636809Y-102560475D02*
X123684428Y-102608094D01*
X123684428Y-102608094D02*
X123779666Y-102655713D01*
X123779666Y-102655713D02*
X123970142Y-102655713D01*
X123970142Y-102655713D02*
X124065380Y-102608094D01*
X124065380Y-102608094D02*
X124113000Y-102560475D01*
X124113000Y-102560475D02*
X124160619Y-102465237D01*
X124160619Y-102465237D02*
X124160619Y-102274761D01*
X124160619Y-102274761D02*
X124113000Y-102179523D01*
X124113000Y-102179523D02*
X124065380Y-102131904D01*
X124065380Y-102131904D02*
X123970142Y-102084285D01*
X123970142Y-102084285D02*
X123779666Y-102084285D01*
X123779666Y-102084285D02*
X123684428Y-102131904D01*
X123684428Y-102131904D02*
X123636809Y-102179523D01*
X123636809Y-102179523D02*
X123589190Y-102274761D01*
%TO.C,C6*%
X130816833Y-112381380D02*
X130769214Y-112429000D01*
X130769214Y-112429000D02*
X130626357Y-112476619D01*
X130626357Y-112476619D02*
X130531119Y-112476619D01*
X130531119Y-112476619D02*
X130388262Y-112429000D01*
X130388262Y-112429000D02*
X130293024Y-112333761D01*
X130293024Y-112333761D02*
X130245405Y-112238523D01*
X130245405Y-112238523D02*
X130197786Y-112048047D01*
X130197786Y-112048047D02*
X130197786Y-111905190D01*
X130197786Y-111905190D02*
X130245405Y-111714714D01*
X130245405Y-111714714D02*
X130293024Y-111619476D01*
X130293024Y-111619476D02*
X130388262Y-111524238D01*
X130388262Y-111524238D02*
X130531119Y-111476619D01*
X130531119Y-111476619D02*
X130626357Y-111476619D01*
X130626357Y-111476619D02*
X130769214Y-111524238D01*
X130769214Y-111524238D02*
X130816833Y-111571857D01*
X131673976Y-111476619D02*
X131483500Y-111476619D01*
X131483500Y-111476619D02*
X131388262Y-111524238D01*
X131388262Y-111524238D02*
X131340643Y-111571857D01*
X131340643Y-111571857D02*
X131245405Y-111714714D01*
X131245405Y-111714714D02*
X131197786Y-111905190D01*
X131197786Y-111905190D02*
X131197786Y-112286142D01*
X131197786Y-112286142D02*
X131245405Y-112381380D01*
X131245405Y-112381380D02*
X131293024Y-112429000D01*
X131293024Y-112429000D02*
X131388262Y-112476619D01*
X131388262Y-112476619D02*
X131578738Y-112476619D01*
X131578738Y-112476619D02*
X131673976Y-112429000D01*
X131673976Y-112429000D02*
X131721595Y-112381380D01*
X131721595Y-112381380D02*
X131769214Y-112286142D01*
X131769214Y-112286142D02*
X131769214Y-112048047D01*
X131769214Y-112048047D02*
X131721595Y-111952809D01*
X131721595Y-111952809D02*
X131673976Y-111905190D01*
X131673976Y-111905190D02*
X131578738Y-111857571D01*
X131578738Y-111857571D02*
X131388262Y-111857571D01*
X131388262Y-111857571D02*
X131293024Y-111905190D01*
X131293024Y-111905190D02*
X131245405Y-111952809D01*
X131245405Y-111952809D02*
X131197786Y-112048047D01*
%TO.C,R1*%
X130118619Y-96472666D02*
X129642428Y-96805999D01*
X130118619Y-97044094D02*
X129118619Y-97044094D01*
X129118619Y-97044094D02*
X129118619Y-96663142D01*
X129118619Y-96663142D02*
X129166238Y-96567904D01*
X129166238Y-96567904D02*
X129213857Y-96520285D01*
X129213857Y-96520285D02*
X129309095Y-96472666D01*
X129309095Y-96472666D02*
X129451952Y-96472666D01*
X129451952Y-96472666D02*
X129547190Y-96520285D01*
X129547190Y-96520285D02*
X129594809Y-96567904D01*
X129594809Y-96567904D02*
X129642428Y-96663142D01*
X129642428Y-96663142D02*
X129642428Y-97044094D01*
X130118619Y-95520285D02*
X130118619Y-96091713D01*
X130118619Y-95805999D02*
X129118619Y-95805999D01*
X129118619Y-95805999D02*
X129261476Y-95901237D01*
X129261476Y-95901237D02*
X129356714Y-95996475D01*
X129356714Y-95996475D02*
X129404333Y-96091713D01*
%TO.C,R6*%
X117578333Y-110317619D02*
X117245000Y-109841428D01*
X117006905Y-110317619D02*
X117006905Y-109317619D01*
X117006905Y-109317619D02*
X117387857Y-109317619D01*
X117387857Y-109317619D02*
X117483095Y-109365238D01*
X117483095Y-109365238D02*
X117530714Y-109412857D01*
X117530714Y-109412857D02*
X117578333Y-109508095D01*
X117578333Y-109508095D02*
X117578333Y-109650952D01*
X117578333Y-109650952D02*
X117530714Y-109746190D01*
X117530714Y-109746190D02*
X117483095Y-109793809D01*
X117483095Y-109793809D02*
X117387857Y-109841428D01*
X117387857Y-109841428D02*
X117006905Y-109841428D01*
X118435476Y-109317619D02*
X118245000Y-109317619D01*
X118245000Y-109317619D02*
X118149762Y-109365238D01*
X118149762Y-109365238D02*
X118102143Y-109412857D01*
X118102143Y-109412857D02*
X118006905Y-109555714D01*
X118006905Y-109555714D02*
X117959286Y-109746190D01*
X117959286Y-109746190D02*
X117959286Y-110127142D01*
X117959286Y-110127142D02*
X118006905Y-110222380D01*
X118006905Y-110222380D02*
X118054524Y-110270000D01*
X118054524Y-110270000D02*
X118149762Y-110317619D01*
X118149762Y-110317619D02*
X118340238Y-110317619D01*
X118340238Y-110317619D02*
X118435476Y-110270000D01*
X118435476Y-110270000D02*
X118483095Y-110222380D01*
X118483095Y-110222380D02*
X118530714Y-110127142D01*
X118530714Y-110127142D02*
X118530714Y-109889047D01*
X118530714Y-109889047D02*
X118483095Y-109793809D01*
X118483095Y-109793809D02*
X118435476Y-109746190D01*
X118435476Y-109746190D02*
X118340238Y-109698571D01*
X118340238Y-109698571D02*
X118149762Y-109698571D01*
X118149762Y-109698571D02*
X118054524Y-109746190D01*
X118054524Y-109746190D02*
X118006905Y-109793809D01*
X118006905Y-109793809D02*
X117959286Y-109889047D01*
%TO.C,R4*%
X156948333Y-110317619D02*
X156615000Y-109841428D01*
X156376905Y-110317619D02*
X156376905Y-109317619D01*
X156376905Y-109317619D02*
X156757857Y-109317619D01*
X156757857Y-109317619D02*
X156853095Y-109365238D01*
X156853095Y-109365238D02*
X156900714Y-109412857D01*
X156900714Y-109412857D02*
X156948333Y-109508095D01*
X156948333Y-109508095D02*
X156948333Y-109650952D01*
X156948333Y-109650952D02*
X156900714Y-109746190D01*
X156900714Y-109746190D02*
X156853095Y-109793809D01*
X156853095Y-109793809D02*
X156757857Y-109841428D01*
X156757857Y-109841428D02*
X156376905Y-109841428D01*
X157805476Y-109650952D02*
X157805476Y-110317619D01*
X157567381Y-109270000D02*
X157329286Y-109984285D01*
X157329286Y-109984285D02*
X157948333Y-109984285D01*
%TO.C,C4*%
X137527380Y-84451666D02*
X137575000Y-84499285D01*
X137575000Y-84499285D02*
X137622619Y-84642142D01*
X137622619Y-84642142D02*
X137622619Y-84737380D01*
X137622619Y-84737380D02*
X137575000Y-84880237D01*
X137575000Y-84880237D02*
X137479761Y-84975475D01*
X137479761Y-84975475D02*
X137384523Y-85023094D01*
X137384523Y-85023094D02*
X137194047Y-85070713D01*
X137194047Y-85070713D02*
X137051190Y-85070713D01*
X137051190Y-85070713D02*
X136860714Y-85023094D01*
X136860714Y-85023094D02*
X136765476Y-84975475D01*
X136765476Y-84975475D02*
X136670238Y-84880237D01*
X136670238Y-84880237D02*
X136622619Y-84737380D01*
X136622619Y-84737380D02*
X136622619Y-84642142D01*
X136622619Y-84642142D02*
X136670238Y-84499285D01*
X136670238Y-84499285D02*
X136717857Y-84451666D01*
X136955952Y-83594523D02*
X137622619Y-83594523D01*
X136575000Y-83832618D02*
X137289285Y-84070713D01*
X137289285Y-84070713D02*
X137289285Y-83451666D01*
%TO.C,SW5*%
X163205000Y-68643332D02*
X163252619Y-68500475D01*
X163252619Y-68500475D02*
X163252619Y-68262380D01*
X163252619Y-68262380D02*
X163205000Y-68167142D01*
X163205000Y-68167142D02*
X163157380Y-68119523D01*
X163157380Y-68119523D02*
X163062142Y-68071904D01*
X163062142Y-68071904D02*
X162966904Y-68071904D01*
X162966904Y-68071904D02*
X162871666Y-68119523D01*
X162871666Y-68119523D02*
X162824047Y-68167142D01*
X162824047Y-68167142D02*
X162776428Y-68262380D01*
X162776428Y-68262380D02*
X162728809Y-68452856D01*
X162728809Y-68452856D02*
X162681190Y-68548094D01*
X162681190Y-68548094D02*
X162633571Y-68595713D01*
X162633571Y-68595713D02*
X162538333Y-68643332D01*
X162538333Y-68643332D02*
X162443095Y-68643332D01*
X162443095Y-68643332D02*
X162347857Y-68595713D01*
X162347857Y-68595713D02*
X162300238Y-68548094D01*
X162300238Y-68548094D02*
X162252619Y-68452856D01*
X162252619Y-68452856D02*
X162252619Y-68214761D01*
X162252619Y-68214761D02*
X162300238Y-68071904D01*
X162252619Y-67738570D02*
X163252619Y-67500475D01*
X163252619Y-67500475D02*
X162538333Y-67309999D01*
X162538333Y-67309999D02*
X163252619Y-67119523D01*
X163252619Y-67119523D02*
X162252619Y-66881428D01*
X162252619Y-66024285D02*
X162252619Y-66500475D01*
X162252619Y-66500475D02*
X162728809Y-66548094D01*
X162728809Y-66548094D02*
X162681190Y-66500475D01*
X162681190Y-66500475D02*
X162633571Y-66405237D01*
X162633571Y-66405237D02*
X162633571Y-66167142D01*
X162633571Y-66167142D02*
X162681190Y-66071904D01*
X162681190Y-66071904D02*
X162728809Y-66024285D01*
X162728809Y-66024285D02*
X162824047Y-65976666D01*
X162824047Y-65976666D02*
X163062142Y-65976666D01*
X163062142Y-65976666D02*
X163157380Y-66024285D01*
X163157380Y-66024285D02*
X163205000Y-66071904D01*
X163205000Y-66071904D02*
X163252619Y-66167142D01*
X163252619Y-66167142D02*
X163252619Y-66405237D01*
X163252619Y-66405237D02*
X163205000Y-66500475D01*
X163205000Y-66500475D02*
X163157380Y-66548094D01*
X156035714Y-64708809D02*
X155702381Y-64708809D01*
X155702381Y-65232619D02*
X155702381Y-64232619D01*
X155702381Y-64232619D02*
X156178571Y-64232619D01*
X156750000Y-64232619D02*
X156940476Y-64232619D01*
X156940476Y-64232619D02*
X157035714Y-64280238D01*
X157035714Y-64280238D02*
X157130952Y-64375476D01*
X157130952Y-64375476D02*
X157178571Y-64565952D01*
X157178571Y-64565952D02*
X157178571Y-64899285D01*
X157178571Y-64899285D02*
X157130952Y-65089761D01*
X157130952Y-65089761D02*
X157035714Y-65185000D01*
X157035714Y-65185000D02*
X156940476Y-65232619D01*
X156940476Y-65232619D02*
X156750000Y-65232619D01*
X156750000Y-65232619D02*
X156654762Y-65185000D01*
X156654762Y-65185000D02*
X156559524Y-65089761D01*
X156559524Y-65089761D02*
X156511905Y-64899285D01*
X156511905Y-64899285D02*
X156511905Y-64565952D01*
X156511905Y-64565952D02*
X156559524Y-64375476D01*
X156559524Y-64375476D02*
X156654762Y-64280238D01*
X156654762Y-64280238D02*
X156750000Y-64232619D01*
X157797619Y-64232619D02*
X157988095Y-64232619D01*
X157988095Y-64232619D02*
X158083333Y-64280238D01*
X158083333Y-64280238D02*
X158178571Y-64375476D01*
X158178571Y-64375476D02*
X158226190Y-64565952D01*
X158226190Y-64565952D02*
X158226190Y-64899285D01*
X158226190Y-64899285D02*
X158178571Y-65089761D01*
X158178571Y-65089761D02*
X158083333Y-65185000D01*
X158083333Y-65185000D02*
X157988095Y-65232619D01*
X157988095Y-65232619D02*
X157797619Y-65232619D01*
X157797619Y-65232619D02*
X157702381Y-65185000D01*
X157702381Y-65185000D02*
X157607143Y-65089761D01*
X157607143Y-65089761D02*
X157559524Y-64899285D01*
X157559524Y-64899285D02*
X157559524Y-64565952D01*
X157559524Y-64565952D02*
X157607143Y-64375476D01*
X157607143Y-64375476D02*
X157702381Y-64280238D01*
X157702381Y-64280238D02*
X157797619Y-64232619D01*
X158511905Y-64232619D02*
X159083333Y-64232619D01*
X158797619Y-65232619D02*
X158797619Y-64232619D01*
X160130953Y-65185000D02*
X160273810Y-65232619D01*
X160273810Y-65232619D02*
X160511905Y-65232619D01*
X160511905Y-65232619D02*
X160607143Y-65185000D01*
X160607143Y-65185000D02*
X160654762Y-65137380D01*
X160654762Y-65137380D02*
X160702381Y-65042142D01*
X160702381Y-65042142D02*
X160702381Y-64946904D01*
X160702381Y-64946904D02*
X160654762Y-64851666D01*
X160654762Y-64851666D02*
X160607143Y-64804047D01*
X160607143Y-64804047D02*
X160511905Y-64756428D01*
X160511905Y-64756428D02*
X160321429Y-64708809D01*
X160321429Y-64708809D02*
X160226191Y-64661190D01*
X160226191Y-64661190D02*
X160178572Y-64613571D01*
X160178572Y-64613571D02*
X160130953Y-64518333D01*
X160130953Y-64518333D02*
X160130953Y-64423095D01*
X160130953Y-64423095D02*
X160178572Y-64327857D01*
X160178572Y-64327857D02*
X160226191Y-64280238D01*
X160226191Y-64280238D02*
X160321429Y-64232619D01*
X160321429Y-64232619D02*
X160559524Y-64232619D01*
X160559524Y-64232619D02*
X160702381Y-64280238D01*
X161035715Y-64232619D02*
X161273810Y-65232619D01*
X161273810Y-65232619D02*
X161464286Y-64518333D01*
X161464286Y-64518333D02*
X161654762Y-65232619D01*
X161654762Y-65232619D02*
X161892858Y-64232619D01*
%TO.C,TP1*%
X144496619Y-73596904D02*
X144496619Y-73025476D01*
X145496619Y-73311190D02*
X144496619Y-73311190D01*
X145496619Y-72692142D02*
X144496619Y-72692142D01*
X144496619Y-72692142D02*
X144496619Y-72311190D01*
X144496619Y-72311190D02*
X144544238Y-72215952D01*
X144544238Y-72215952D02*
X144591857Y-72168333D01*
X144591857Y-72168333D02*
X144687095Y-72120714D01*
X144687095Y-72120714D02*
X144829952Y-72120714D01*
X144829952Y-72120714D02*
X144925190Y-72168333D01*
X144925190Y-72168333D02*
X144972809Y-72215952D01*
X144972809Y-72215952D02*
X145020428Y-72311190D01*
X145020428Y-72311190D02*
X145020428Y-72692142D01*
X145496619Y-71168333D02*
X145496619Y-71739761D01*
X145496619Y-71454047D02*
X144496619Y-71454047D01*
X144496619Y-71454047D02*
X144639476Y-71549285D01*
X144639476Y-71549285D02*
X144734714Y-71644523D01*
X144734714Y-71644523D02*
X144782333Y-71739761D01*
D12*
%TO.C,SW2*%
X164230000Y-76660000D02*
X164230000Y-75160000D01*
X162980000Y-72660000D02*
X158480000Y-72660000D01*
X158480000Y-79160000D02*
X162980000Y-79160000D01*
X157230000Y-75160000D02*
X157230000Y-76660000D01*
%TO.C,J2*%
X118050000Y-100390000D02*
X118050000Y-99060000D01*
X119380000Y-100390000D02*
X118050000Y-100390000D01*
X120650000Y-100390000D02*
X125790000Y-100390000D01*
X120650000Y-100390000D02*
X120650000Y-97730000D01*
X125790000Y-100390000D02*
X125790000Y-97730000D01*
X120650000Y-97730000D02*
X125790000Y-97730000D01*
%TO.C,SW6*%
X133166000Y-98516000D02*
X133766000Y-98516000D01*
X133466000Y-98816000D02*
X133166000Y-98516000D01*
X133766000Y-98516000D02*
X133466000Y-98816000D01*
X134266000Y-96316000D02*
X134266000Y-98816000D01*
X134266000Y-108916000D02*
X134266000Y-106116000D01*
X139066000Y-96316000D02*
X134266000Y-96316000D01*
X139166000Y-108916000D02*
X134266000Y-108916000D01*
X140466000Y-102616000D02*
X141466000Y-102616000D01*
X140966000Y-102116000D02*
X140966000Y-103116000D01*
X142766000Y-96316000D02*
X147666000Y-96316000D01*
X147666000Y-96316000D02*
X147666000Y-98916000D01*
X147666000Y-101316000D02*
X147666000Y-103916000D01*
X147666000Y-106316000D02*
X147666000Y-108916000D01*
X147666000Y-108916000D02*
X142766000Y-108916000D01*
X143966000Y-102616000D02*
G75*
G03*
X143966000Y-102616000I-3000000J0D01*
G01*
%TO.C,SW1*%
X164230000Y-87400000D02*
X164230000Y-85900000D01*
X162980000Y-83400000D02*
X158480000Y-83400000D01*
X158480000Y-89900000D02*
X162980000Y-89900000D01*
X157230000Y-85900000D02*
X157230000Y-87400000D01*
%TO.C,U2*%
X141086000Y-112414000D02*
X147096000Y-112414000D01*
X143336000Y-119234000D02*
X147096000Y-119234000D01*
X147096000Y-112414000D02*
X147096000Y-113674000D01*
X147096000Y-119234000D02*
X147096000Y-117974000D01*
%TO.C,R10*%
X132307064Y-78840000D02*
X131852936Y-78840000D01*
X132307064Y-77370000D02*
X131852936Y-77370000D01*
%TO.C,C2*%
X146150000Y-87583748D02*
X146150000Y-88106252D01*
X144680000Y-87583748D02*
X144680000Y-88106252D01*
%TO.C,SW4*%
X124710000Y-87400000D02*
X124710000Y-85900000D01*
X123460000Y-83400000D02*
X118960000Y-83400000D01*
X118960000Y-89900000D02*
X123460000Y-89900000D01*
X117710000Y-85900000D02*
X117710000Y-87400000D01*
%TO.C,SW3*%
X117710000Y-75740000D02*
X117710000Y-77240000D01*
X118960000Y-79740000D02*
X123460000Y-79740000D01*
X123460000Y-73240000D02*
X118960000Y-73240000D01*
X124710000Y-77240000D02*
X124710000Y-75740000D01*
%TO.C,J5*%
X146110000Y-65290000D02*
X146110000Y-66620000D01*
X144780000Y-65290000D02*
X146110000Y-65290000D01*
X143510000Y-65290000D02*
X135830000Y-65290000D01*
X143510000Y-65290000D02*
X143510000Y-67950000D01*
X135830000Y-65290000D02*
X135830000Y-67950000D01*
X143510000Y-67950000D02*
X135830000Y-67950000D01*
%TO.C,R3*%
X160062936Y-111660000D02*
X160517064Y-111660000D01*
X160062936Y-113130000D02*
X160517064Y-113130000D01*
%TO.C,U3*%
X160152500Y-104800000D02*
X158352500Y-104800000D01*
X160152500Y-104800000D02*
X160952500Y-104800000D01*
X160152500Y-107920000D02*
X159352500Y-107920000D01*
X160152500Y-107920000D02*
X160952500Y-107920000D01*
%TO.C,C7*%
X160513752Y-103605000D02*
X159991248Y-103605000D01*
X160513752Y-102135000D02*
X159991248Y-102135000D01*
%TO.C,J4*%
X132193500Y-117154000D02*
X132193500Y-115824000D01*
X133523500Y-117154000D02*
X132193500Y-117154000D01*
X134793500Y-117154000D02*
X137393500Y-117154000D01*
X134793500Y-117154000D02*
X134793500Y-114494000D01*
X137393500Y-117154000D02*
X137393500Y-114494000D01*
X134793500Y-114494000D02*
X137393500Y-114494000D01*
%TO.C,TP3*%
X140400000Y-69137900D02*
X140400000Y-70537900D01*
X139000000Y-69137900D02*
X140400000Y-69137900D01*
X140400000Y-70537900D02*
X139000000Y-70537900D01*
X139000000Y-70537900D02*
X139000000Y-69137900D01*
%TO.C,R2*%
X128921000Y-106423064D02*
X128921000Y-105968936D01*
X130391000Y-106423064D02*
X130391000Y-105968936D01*
%TO.C,J6*%
X157420000Y-100390000D02*
X157420000Y-99060000D01*
X158750000Y-100390000D02*
X157420000Y-100390000D01*
X160020000Y-100390000D02*
X165160000Y-100390000D01*
X160020000Y-100390000D02*
X160020000Y-97730000D01*
X165160000Y-100390000D02*
X165160000Y-97730000D01*
X160020000Y-97730000D02*
X165160000Y-97730000D01*
%TO.C,TP4*%
X137860000Y-69137900D02*
X137860000Y-70537900D01*
X136460000Y-69137900D02*
X137860000Y-69137900D01*
X137860000Y-70537900D02*
X136460000Y-70537900D01*
X136460000Y-70537900D02*
X136460000Y-69137900D01*
%TO.C,C1*%
X143610000Y-87601248D02*
X143610000Y-88123752D01*
X142140000Y-87601248D02*
X142140000Y-88123752D01*
%TO.C,C5*%
X135287252Y-120369000D02*
X134764748Y-120369000D01*
X135287252Y-118899000D02*
X134764748Y-118899000D01*
%TO.C,TP2*%
X142940000Y-69137900D02*
X142940000Y-70537900D01*
X141540000Y-69137900D02*
X142940000Y-69137900D01*
X142940000Y-70537900D02*
X141540000Y-70537900D01*
X141540000Y-70537900D02*
X141540000Y-69137900D01*
%TO.C,C3*%
X140435000Y-87601248D02*
X140435000Y-88123752D01*
X138965000Y-87601248D02*
X138965000Y-88123752D01*
%TO.C,U1*%
X144707000Y-81787000D02*
X144232000Y-81787000D01*
X137487000Y-81312000D02*
X137487000Y-81787000D01*
X144707000Y-81312000D02*
X144707000Y-81787000D01*
X137487000Y-75042000D02*
X137487000Y-74567000D01*
X144707000Y-75042000D02*
X144707000Y-74567000D01*
X137487000Y-74567000D02*
X137962000Y-74567000D01*
X144707000Y-74567000D02*
X144232000Y-74567000D01*
%TO.C,R5*%
X120692936Y-111660000D02*
X121147064Y-111660000D01*
X120692936Y-113130000D02*
X121147064Y-113130000D01*
%TO.C,U4*%
X120782500Y-104800000D02*
X118982500Y-104800000D01*
X120782500Y-104800000D02*
X121582500Y-104800000D01*
X120782500Y-107920000D02*
X119982500Y-107920000D01*
X120782500Y-107920000D02*
X121582500Y-107920000D01*
%TO.C,C8*%
X121143752Y-103605000D02*
X120621248Y-103605000D01*
X121143752Y-102135000D02*
X120621248Y-102135000D01*
%TO.C,C6*%
X135287252Y-112749000D02*
X134764748Y-112749000D01*
X135287252Y-111279000D02*
X134764748Y-111279000D01*
%TO.C,R1*%
X130391000Y-98888936D02*
X130391000Y-99343064D01*
X128921000Y-98888936D02*
X128921000Y-99343064D01*
%TO.C,R6*%
X120692936Y-109120000D02*
X121147064Y-109120000D01*
X120692936Y-110590000D02*
X121147064Y-110590000D01*
%TO.C,R4*%
X160062936Y-109120000D02*
X160517064Y-109120000D01*
X160062936Y-110590000D02*
X160517064Y-110590000D01*
%TO.C,C4*%
X137895000Y-87618748D02*
X137895000Y-88141252D01*
X136425000Y-87618748D02*
X136425000Y-88141252D01*
%TO.C,SW5*%
X158750000Y-65980000D02*
X156150000Y-65980000D01*
X158750000Y-65980000D02*
X158750000Y-68640000D01*
X156150000Y-65980000D02*
X156150000Y-68640000D01*
X161350000Y-67310000D02*
X161350000Y-68640000D01*
X161350000Y-68640000D02*
X160020000Y-68640000D01*
X158750000Y-68640000D02*
X156150000Y-68640000D01*
%TO.C,TP1*%
X145480000Y-69137900D02*
X145480000Y-70537900D01*
X144080000Y-69137900D02*
X145480000Y-69137900D01*
X145480000Y-70537900D02*
X144080000Y-70537900D01*
X144080000Y-70537900D02*
X144080000Y-69137900D01*
%TD*%
M02*
