M48
; DRILL file {KiCad 7.0.1-3b83917a11~172~ubuntu22.04.1} date Sun 11 Jun 2023 16:35:40 BST
; FORMAT={-:-/ absolute / inch / decimal}
; #@! TF.CreationDate,2023-06-11T16:35:40+01:00
; #@! TF.GenerationSoftware,Kicad,Pcbnew,7.0.1-3b83917a11~172~ubuntu22.04.1
; #@! TF.FileFunction,Plated,1,2,PTH
FMAT,2
INCH
; #@! TA.AperFunction,Plated,PTH,ViaDrill
T1C0.0157
; #@! TA.AperFunction,Plated,PTH,ComponentDrill
T2C0.0394
; #@! TA.AperFunction,Plated,PTH,ComponentDrill
T3C0.0433
; #@! TA.AperFunction,Plated,PTH,ComponentDrill
T4C0.0787
%
G90
G05
T1
X4.6Y-2.6
X4.6Y-2.8
X4.6Y-3.2
X4.6Y-3.6
X4.6Y-4.2
X4.6Y-4.4
X4.6Y-4.6
X4.6Y-4.8
X4.66Y-4.05
X4.66Y-4.19
X4.7Y-2.7
X4.7Y-3.7
X4.7Y-4.5
X4.7Y-4.7
X4.8Y-2.6
X4.8Y-2.8
X4.8Y-3.0
X4.8Y-3.2
X4.8Y-3.4
X4.8Y-3.6
X4.8Y-4.6
X4.8Y-4.8
X4.85Y-4.15
X4.9Y-2.7
X4.9Y-3.7
X4.9Y-4.3
X4.9Y-4.5
X4.9Y-4.7
X5.0Y-2.6
X5.0Y-2.8
X5.0Y-3.2
X5.0Y-3.4
X5.0Y-3.6
X5.0Y-3.8
X5.0Y-4.15
X5.0Y-4.2
X5.0Y-4.4
X5.0Y-4.6
X5.0Y-4.8
X5.1Y-2.7
X5.1Y-3.075
X5.1Y-3.3
X5.1Y-3.5
X5.1Y-3.65
X5.1Y-4.3
X5.1Y-4.5
X5.1Y-4.7
X5.2Y-2.6
X5.2Y-3.2
X5.2Y-3.4
X5.2Y-3.6
X5.2Y-4.8
X5.22Y-4.41
X5.225Y-4.71
X5.25Y-3.0
X5.2965Y-3.075
X5.3Y-2.7
X5.3Y-3.3
X5.3Y-3.7
X5.3Y-4.3
X5.35Y-3.0285
X5.4Y-3.8
X5.4Y-4.0
X5.4Y-4.2
X5.4Y-4.8
X5.42Y-2.81
X5.45Y-2.84
X5.45Y-3.55
X5.5Y-3.7
X5.5256Y-4.4694
X5.5802Y-3.3
X5.6Y-4.8
X5.625Y-2.8728
X5.625Y-3.275
X5.66Y-2.81
X5.675Y-3.5493
X5.675Y-4.45
X5.675Y-4.675
X5.7Y-2.81
X5.7Y-3.7
X5.7Y-4.1
X5.7Y-4.3
X5.725Y-4.4
X5.725Y-4.5
X5.725Y-4.625
X5.725Y-4.725
X5.75Y-2.9
X5.775Y-4.45
X5.775Y-4.675
X5.8Y-2.6
X5.8Y-3.05
X5.8Y-3.1
X5.8Y-3.15
X5.8Y-3.2
X5.8Y-4.8
X5.825Y-4.4
X5.825Y-4.725
X5.85Y-3.56
X5.875Y-4.45
X5.875Y-4.675
X5.9Y-2.7
X5.9Y-3.6
X5.9Y-4.1
X5.9Y-4.3
X5.925Y-4.4
X5.925Y-4.5
X5.925Y-4.625
X5.925Y-4.725
X5.95Y-3.56
X5.975Y-3.025
X6.0Y-2.6
X6.0Y-3.2
X6.0Y-3.4
X6.0Y-4.0
X6.0Y-4.2
X6.0Y-4.8
X6.05Y-4.105
X6.1Y-2.8
X6.1Y-3.1
X6.1Y-3.3
X6.1Y-3.5
X6.1Y-4.3
X6.1Y-4.5
X6.1Y-4.7
X6.2Y-3.2
X6.2Y-3.6
X6.2Y-4.1049
X6.2Y-4.6
X6.2Y-4.8
X6.3Y-2.8
X6.3Y-3.7
X6.3Y-4.5
X6.3Y-4.7
X6.4Y-3.6
X6.4Y-4.6
X6.4Y-4.8
X6.5Y-2.6
X6.5Y-2.8
X6.5Y-3.7
X6.5Y-4.1
X6.5Y-4.3
X6.5Y-4.5
X6.5Y-4.7
T2
X4.7Y-3.9
X4.8Y-3.9
X4.9Y-3.9
X5.2546Y-3.9416
X5.2546Y-4.04
X5.2546Y-4.1384
X5.2568Y-4.56
X5.3568Y-4.56
X5.4Y-2.6228
X5.5Y-2.6228
X5.6Y-2.6228
X5.7Y-2.6228
X5.8254Y-3.9416
X5.8254Y-4.1384
X6.2Y-2.65
X6.25Y-3.9
X6.3Y-2.65
X6.35Y-3.9
X6.45Y-3.9
T3
X4.6441Y-2.9228
X4.6441Y-3.1
X4.6441Y-3.3228
X4.6441Y-3.5
X4.9Y-2.9228
X4.9Y-3.1
X4.9Y-3.3228
X4.9Y-3.5
X6.2Y-2.9
X6.2Y-3.0772
X6.2Y-3.3228
X6.2Y-3.5
X6.4559Y-2.9
X6.4559Y-3.0772
X6.4559Y-3.3228
X6.4559Y-3.5
T4
G00X5.54Y-3.8195
M15
G01X5.5597Y-3.8195
M16
G05
G00X5.54Y-4.2605
M15
G01X5.5597Y-4.2605
M16
G05
T0
M30
